<svg id="Layer_1" data-name="Layer 1" xmlns="http://www.w3.org/2000/svg" viewBox="0 0 50 50"><defs><style>.cls-1{fill:#e8a843;}.cls-2{fill:#dd9300;}</style></defs><title>coin</title><path class="cls-1" d="M8.6,12A5.76,5.76,0,0,0,6,16.54V32.48A5.76,5.76,0,0,0,8.6,37l13.8,8a5.76,5.76,0,0,0,5.2,0l13.8-8a5.76,5.76,0,0,0,2.6-4.5V16.54A5.76,5.76,0,0,0,41.4,12l-13.8-8a5.76,5.76,0,0,0-5.2,0Z"/><path class="cls-2" d="M14.6,15.5A5.76,5.76,0,0,0,12,20v9a5.76,5.76,0,0,0,2.6,4.5L22.4,38a5.76,5.76,0,0,0,5.2,0l7.8-4.51A5.76,5.76,0,0,0,38,29V20a5.76,5.76,0,0,0-2.6-4.5L27.6,11a5.76,5.76,0,0,0-5.2,0Z"/></svg>