<svg id="Layer_1" data-name="Layer 1" xmlns="http://www.w3.org/2000/svg" xmlns:xlink="http://www.w3.org/1999/xlink" viewBox="0 0 750 1334"><defs><style>.cls-1{fill:#f4af40;}.cls-2{fill:#e58a30;}.cls-3{fill:#7f6a3b;}.cls-4{fill:#f7cb97;}.cls-5{fill:#e89736;}.cls-6{fill:#f29233;}.cls-7{fill:#f4e1cb;}.cls-8{fill:#846540;}.cls-9{fill:#f2dcc4;}.cls-10{fill:#e5a961;}.cls-11{fill:#f9cca0;}.cls-12{fill:#d39b67;}.cls-13{fill:#eab686;}.cls-14{fill:#ea822d;}.cls-15{fill:#f2cfaf;stroke:#f28b36;}.cls-15,.cls-16{stroke-miterlimit:10;stroke-width:8px;}.cls-16{fill:none;stroke:#a8754e;stroke-linecap:round;}.cls-17{fill:url(#linear-gradient);}</style><linearGradient id="linear-gradient" x1="375" y1="1334" x2="375" y2="993" gradientUnits="userSpaceOnUse"><stop offset="0" stop-color="#222" stop-opacity="0.7"/><stop offset="1" stop-color="#222" stop-opacity="0"/></linearGradient></defs><title>mobile-bg</title><g id="icon"><path id="base" class="cls-1" d="M985.07,708.94,395.77,918.69A35.85,35.85,0,0,1,350.11,897L251.23,619.19a35.85,35.85,0,0,1,21.69-45.66l589.3-209.75a35.85,35.85,0,0,1,45.66,21.69l98.88,277.81A35.85,35.85,0,0,1,985.07,708.94Z"/><g id="_05" data-name="05"><path id="button" class="cls-2" d="M420.45,881.45l-16.84,6a17.92,17.92,0,0,1-22.83-10.84l-3-8.42a17.92,17.92,0,0,1,10.84-22.83l16.84-6A17.92,17.92,0,0,1,428.3,850.2l3,8.42A17.92,17.92,0,0,1,420.45,881.45Z"/><path id="button-2" data-name="button" class="cls-2" d="M487.8,857.48l-16.84,6a17.92,17.92,0,0,1-22.83-10.84l-3-8.42A17.92,17.92,0,0,1,456,821.38l16.84-6a17.92,17.92,0,0,1,22.83,10.84l3,8.42A17.92,17.92,0,0,1,487.8,857.48Z"/><path id="button-3" data-name="button" class="cls-2" d="M824.54,737.62,538.31,839.5a17.92,17.92,0,0,1-22.83-10.84l-3-8.42a17.92,17.92,0,0,1,10.84-22.83L809.56,695.53a17.92,17.92,0,0,1,22.83,10.84l3,8.42A17.92,17.92,0,0,1,824.54,737.62Z"/></g><g id="_04" data-name="04"><path id="button-4" data-name="button" class="cls-2" d="M534.17,774.58l-16.84,6a17.92,17.92,0,0,1-22.83-10.84l-3-8.42a17.92,17.92,0,0,1,10.84-22.83l16.84-6A17.92,17.92,0,0,1,542,743.33l3,8.42A17.92,17.92,0,0,1,534.17,774.58Z"/><path id="button-5" data-name="button" class="cls-2" d="M601.52,750.61l-16.84,6a17.92,17.92,0,0,1-22.83-10.84l-3-8.42a17.92,17.92,0,0,1,10.84-22.83l16.84-6a17.92,17.92,0,0,1,22.83,10.84l3,8.42A17.92,17.92,0,0,1,601.52,750.61Z"/><path id="button-6" data-name="button" class="cls-2" d="M668.87,726.64l-16.84,6a17.92,17.92,0,0,1-22.83-10.84l-3-8.42a17.92,17.92,0,0,1,10.84-22.83l16.84-6a17.92,17.92,0,0,1,22.83,10.84l3,8.42A17.92,17.92,0,0,1,668.87,726.64Z"/><path id="button-7" data-name="button" class="cls-2" d="M736.22,702.66l-16.84,6a17.92,17.92,0,0,1-22.83-10.84l-3-8.42a17.92,17.92,0,0,1,10.84-22.83l16.84-6a17.92,17.92,0,0,1,22.83,10.84l3,8.42A17.92,17.92,0,0,1,736.22,702.66Z"/><path id="button-8" data-name="button" class="cls-2" d="M466.83,798.55l-84.19,30a17.92,17.92,0,0,1-22.83-10.84l-3-8.42a17.92,17.92,0,0,1,10.84-22.83l84.19-30a17.92,17.92,0,0,1,22.83,10.84l3,8.42A17.92,17.92,0,0,1,466.83,798.55Z"/></g><g id="_03" data-name="03"><path id="button-9" data-name="button" class="cls-2" d="M378.5,763.59l-16.84,6a17.92,17.92,0,0,1-22.83-10.84l-3-8.42a17.92,17.92,0,0,1,10.84-22.83l16.84-6a17.92,17.92,0,0,1,22.83,10.84l3,8.42A17.92,17.92,0,0,1,378.5,763.59Z"/><path id="button-10" data-name="button" class="cls-2" d="M445.85,739.62l-16.84,6a17.92,17.92,0,0,1-22.83-10.84l-3-8.42A17.92,17.92,0,0,1,414,703.52l16.84-6a17.92,17.92,0,0,1,22.83,10.84l3,8.42A17.92,17.92,0,0,1,445.85,739.62Z"/><path id="button-11" data-name="button" class="cls-2" d="M513.2,715.65l-16.84,6a17.92,17.92,0,0,1-22.83-10.84l-3-8.42a17.92,17.92,0,0,1,10.84-22.83l16.84-6A17.92,17.92,0,0,1,521,684.4l3,8.42A17.92,17.92,0,0,1,513.2,715.65Z"/><path id="button-12" data-name="button" class="cls-2" d="M580.55,691.68l-16.84,6a17.92,17.92,0,0,1-22.83-10.84l-3-8.42a17.92,17.92,0,0,1,10.84-22.83l16.84-6a17.92,17.92,0,0,1,22.83,10.84l3,8.42A17.92,17.92,0,0,1,580.55,691.68Z"/><path id="button-13" data-name="button" class="cls-2" d="M647.9,667.71l-16.84,6a17.92,17.92,0,0,1-22.83-10.84l-3-8.42a17.92,17.92,0,0,1,10.84-22.83l16.84-6a17.92,17.92,0,0,1,22.83,10.84l3,8.42A17.92,17.92,0,0,1,647.9,667.71Z"/><path id="button-14" data-name="button" class="cls-2" d="M715.24,643.73l-16.84,6a17.92,17.92,0,0,1-22.83-10.84l-3-8.42a17.92,17.92,0,0,1,10.84-22.83l16.84-6a17.92,17.92,0,0,1,22.83,10.84l3,8.42A17.92,17.92,0,0,1,715.24,643.73Z"/><path id="button-15" data-name="button" class="cls-2" d="M782.59,619.76l-16.84,6a17.92,17.92,0,0,1-22.83-10.84l-3-8.42a17.92,17.92,0,0,1,10.84-22.83l16.84-6a17.92,17.92,0,0,1,22.83,10.84l3,8.42A17.92,17.92,0,0,1,782.59,619.76Z"/></g><g id="_02" data-name="02"><path id="button-16" data-name="button" class="cls-2" d="M357.53,704.66l-16.84,6a17.92,17.92,0,0,1-22.83-10.84l-3-8.42a17.92,17.92,0,0,1,10.84-22.83l16.84-6a17.92,17.92,0,0,1,22.83,10.84l3,8.42A17.92,17.92,0,0,1,357.53,704.66Z"/><path id="button-17" data-name="button" class="cls-2" d="M424.88,680.69l-16.84,6a17.92,17.92,0,0,1-22.83-10.84l-3-8.42a17.92,17.92,0,0,1,10.84-22.83l16.84-6a17.92,17.92,0,0,1,22.83,10.84l3,8.42A17.92,17.92,0,0,1,424.88,680.69Z"/><path id="button-18" data-name="button" class="cls-2" d="M492.22,656.72l-16.84,6a17.92,17.92,0,0,1-22.83-10.84l-3-8.42a17.92,17.92,0,0,1,10.84-22.83l16.84-6a17.92,17.92,0,0,1,22.83,10.84l3,8.42A17.92,17.92,0,0,1,492.22,656.72Z"/><path id="button-19" data-name="button" class="cls-2" d="M559.57,632.75l-16.84,6a17.92,17.92,0,0,1-22.83-10.84l-3-8.42a17.92,17.92,0,0,1,10.84-22.83l16.84-6a17.92,17.92,0,0,1,22.83,10.84l3,8.42A17.92,17.92,0,0,1,559.57,632.75Z"/><path id="button-20" data-name="button" class="cls-2" d="M626.92,608.78l-16.84,6a17.92,17.92,0,0,1-22.83-10.84l-3-8.42a17.92,17.92,0,0,1,10.84-22.83l16.84-6a17.92,17.92,0,0,1,22.83,10.84l3,8.42A17.92,17.92,0,0,1,626.92,608.78Z"/><path id="button-21" data-name="button" class="cls-2" d="M694.27,584.8l-16.84,6A17.92,17.92,0,0,1,654.6,580l-3-8.42a17.92,17.92,0,0,1,10.84-22.83l16.84-6a17.92,17.92,0,0,1,22.83,10.84l3,8.42A17.92,17.92,0,0,1,694.27,584.8Z"/><path id="button-22" data-name="button" class="cls-2" d="M761.62,560.83l-16.84,6A17.92,17.92,0,0,1,722,556l-3-8.42a17.92,17.92,0,0,1,10.84-22.83l16.84-6a17.92,17.92,0,0,1,22.83,10.84l3,8.42A17.92,17.92,0,0,1,761.62,560.83Z"/></g><g id="_01" data-name="01"><path id="button-23" data-name="button" class="cls-2" d="M336.55,645.73l-16.84,6a17.92,17.92,0,0,1-22.83-10.84l-3-8.42a17.92,17.92,0,0,1,10.84-22.83l16.84-6a17.92,17.92,0,0,1,22.83,10.84l3,8.42A17.92,17.92,0,0,1,336.55,645.73Z"/><path id="button-24" data-name="button" class="cls-2" d="M403.9,621.76l-16.84,6a17.92,17.92,0,0,1-22.83-10.84l-3-8.42a17.92,17.92,0,0,1,10.84-22.83l16.84-6a17.92,17.92,0,0,1,22.83,10.84l3,8.42A17.92,17.92,0,0,1,403.9,621.76Z"/><path id="button-25" data-name="button" class="cls-2" d="M471.25,597.79l-16.84,6a17.92,17.92,0,0,1-22.83-10.84l-3-8.42a17.92,17.92,0,0,1,10.84-22.83l16.84-6a17.92,17.92,0,0,1,22.83,10.84l3,8.42A17.92,17.92,0,0,1,471.25,597.79Z"/><path id="button-26" data-name="button" class="cls-2" d="M538.6,573.82l-16.84,6A17.92,17.92,0,0,1,498.93,569l-3-8.42a17.92,17.92,0,0,1,10.84-22.83l16.84-6a17.92,17.92,0,0,1,22.83,10.84l3,8.42A17.92,17.92,0,0,1,538.6,573.82Z"/><path id="button-27" data-name="button" class="cls-2" d="M605.95,549.85l-16.84,6A17.92,17.92,0,0,1,566.28,545l-3-8.42a17.92,17.92,0,0,1,10.84-22.83l16.84-6a17.92,17.92,0,0,1,22.83,10.84l3,8.42A17.92,17.92,0,0,1,605.95,549.85Z"/><path id="button-28" data-name="button" class="cls-2" d="M673.29,525.87l-16.84,6A17.92,17.92,0,0,1,633.63,521l-3-8.42a17.92,17.92,0,0,1,10.84-22.83l16.84-6a17.92,17.92,0,0,1,22.83,10.84l3,8.42A17.92,17.92,0,0,1,673.29,525.87Z"/><path id="button-29" data-name="button" class="cls-2" d="M740.64,501.9l-16.84,6A17.92,17.92,0,0,1,701,497.05l-3-8.42a17.92,17.92,0,0,1,10.84-22.83l16.84-6a17.92,17.92,0,0,1,22.83,10.84l3,8.42A17.92,17.92,0,0,1,740.64,501.9Z"/></g><g id="_05-2" data-name="05"><path id="button-30" data-name="button" class="cls-3" d="M417.46,873l-16.84,6a17.92,17.92,0,0,1-22.83-10.84l-3-8.42a17.92,17.92,0,0,1,10.84-22.83l16.84-6a17.92,17.92,0,0,1,22.83,10.84l3,8.42A17.92,17.92,0,0,1,417.46,873Z"/><path id="button-31" data-name="button" class="cls-3" d="M484.8,849.06l-16.84,6a17.92,17.92,0,0,1-22.83-10.84l-3-8.42A17.92,17.92,0,0,1,453,813l16.84-6a17.92,17.92,0,0,1,22.83,10.84l3,8.42A17.92,17.92,0,0,1,484.8,849.06Z"/><path id="button-32" data-name="button" class="cls-3" d="M821.55,729.2,535.32,831.08a17.92,17.92,0,0,1-22.83-10.84l-3-8.42A17.92,17.92,0,0,1,520.33,789L806.56,687.11A17.92,17.92,0,0,1,829.39,698l3,8.42A17.92,17.92,0,0,1,821.55,729.2Z"/></g><g id="_04-2" data-name="04"><path id="button-33" data-name="button" class="cls-3" d="M531.18,766.16l-16.84,6a17.92,17.92,0,0,1-22.83-10.84l-3-8.42a17.92,17.92,0,0,1,10.84-22.83l16.84-6A17.92,17.92,0,0,1,539,734.91l3,8.42A17.92,17.92,0,0,1,531.18,766.16Z"/><path id="button-34" data-name="button" class="cls-3" d="M598.53,742.19l-16.84,6a17.92,17.92,0,0,1-22.83-10.84l-3-8.42a17.92,17.92,0,0,1,10.84-22.83l16.84-6a17.92,17.92,0,0,1,22.83,10.84l3,8.42A17.92,17.92,0,0,1,598.53,742.19Z"/><path id="button-35" data-name="button" class="cls-3" d="M665.87,718.22l-16.84,6a17.92,17.92,0,0,1-22.83-10.84l-3-8.42a17.92,17.92,0,0,1,10.84-22.83l16.84-6A17.92,17.92,0,0,1,673.72,687l3,8.42A17.92,17.92,0,0,1,665.87,718.22Z"/><path id="button-36" data-name="button" class="cls-3" d="M733.22,694.25l-16.84,6a17.92,17.92,0,0,1-22.83-10.84l-3-8.42a17.92,17.92,0,0,1,10.84-22.83l16.84-6A17.92,17.92,0,0,1,741.07,663l3,8.42A17.92,17.92,0,0,1,733.22,694.25Z"/><path id="button-37" data-name="button" class="cls-3" d="M463.83,790.13l-84.19,30a17.92,17.92,0,0,1-22.83-10.84l-3-8.42A17.92,17.92,0,0,1,364.66,778l84.19-30a17.92,17.92,0,0,1,22.83,10.84l3,8.42A17.92,17.92,0,0,1,463.83,790.13Z"/></g><g id="_03-2" data-name="03"><path id="button-38" data-name="button" class="cls-3" d="M375.51,755.17l-16.84,6a17.92,17.92,0,0,1-22.83-10.84l-3-8.42a17.92,17.92,0,0,1,10.84-22.83l16.84-6a17.92,17.92,0,0,1,22.83,10.84l3,8.42A17.92,17.92,0,0,1,375.51,755.17Z"/><path id="button-39" data-name="button" class="cls-3" d="M442.86,731.2l-16.84,6a17.92,17.92,0,0,1-22.83-10.84l-3-8.42A17.92,17.92,0,0,1,411,695.1l16.84-6A17.92,17.92,0,0,1,450.7,700l3,8.42A17.92,17.92,0,0,1,442.86,731.2Z"/><path id="button-40" data-name="button" class="cls-3" d="M510.2,707.23l-16.84,6a17.92,17.92,0,0,1-22.83-10.84l-3-8.42a17.92,17.92,0,0,1,10.84-22.83l16.84-6A17.92,17.92,0,0,1,518.05,676l3,8.42A17.92,17.92,0,0,1,510.2,707.23Z"/><path id="button-41" data-name="button" class="cls-3" d="M577.55,683.26l-16.84,6a17.92,17.92,0,0,1-22.83-10.84l-3-8.42a17.92,17.92,0,0,1,10.84-22.83l16.84-6A17.92,17.92,0,0,1,585.4,652l3,8.42A17.92,17.92,0,0,1,577.55,683.26Z"/><path id="button-42" data-name="button" class="cls-3" d="M644.9,659.29l-16.84,6a17.92,17.92,0,0,1-22.83-10.84l-3-8.42a17.92,17.92,0,0,1,10.84-22.83l16.84-6A17.92,17.92,0,0,1,652.75,628l3,8.42A17.92,17.92,0,0,1,644.9,659.29Z"/><path id="button-43" data-name="button" class="cls-3" d="M712.25,635.32l-16.84,6a17.92,17.92,0,0,1-22.83-10.84l-3-8.42a17.92,17.92,0,0,1,10.84-22.83l16.84-6a17.92,17.92,0,0,1,22.83,10.84l3,8.42A17.92,17.92,0,0,1,712.25,635.32Z"/><path id="button-44" data-name="button" class="cls-3" d="M779.6,611.34l-16.84,6a17.92,17.92,0,0,1-22.83-10.84l-3-8.42a17.92,17.92,0,0,1,10.84-22.83l16.84-6a17.92,17.92,0,0,1,22.83,10.84l3,8.42A17.92,17.92,0,0,1,779.6,611.34Z"/></g><g id="_02-2" data-name="02"><path id="button-45" data-name="button" class="cls-3" d="M354.53,696.24l-16.84,6a17.92,17.92,0,0,1-22.83-10.84l-3-8.42a17.92,17.92,0,0,1,10.84-22.83l16.84-6A17.92,17.92,0,0,1,362.38,665l3,8.42A17.92,17.92,0,0,1,354.53,696.24Z"/><path id="button-46" data-name="button" class="cls-3" d="M421.88,672.27l-16.84,6a17.92,17.92,0,0,1-22.83-10.84l-3-8.42a17.92,17.92,0,0,1,10.84-22.83l16.84-6A17.92,17.92,0,0,1,429.73,641l3,8.42A17.92,17.92,0,0,1,421.88,672.27Z"/><path id="button-47" data-name="button" class="cls-3" d="M489.23,648.3l-16.84,6a17.92,17.92,0,0,1-22.83-10.84l-3-8.42a17.92,17.92,0,0,1,10.84-22.83l16.84-6a17.92,17.92,0,0,1,22.83,10.84l3,8.42A17.92,17.92,0,0,1,489.23,648.3Z"/><path id="button-48" data-name="button" class="cls-3" d="M556.58,624.33l-16.84,6a17.92,17.92,0,0,1-22.83-10.84l-3-8.42a17.92,17.92,0,0,1,10.84-22.83l16.84-6a17.92,17.92,0,0,1,22.83,10.84l3,8.42A17.92,17.92,0,0,1,556.58,624.33Z"/><path id="button-49" data-name="button" class="cls-3" d="M623.92,600.36l-16.84,6a17.92,17.92,0,0,1-22.83-10.84l-3-8.42a17.92,17.92,0,0,1,10.84-22.83l16.84-6a17.92,17.92,0,0,1,22.83,10.84l3,8.42A17.92,17.92,0,0,1,623.92,600.36Z"/><path id="button-50" data-name="button" class="cls-3" d="M691.27,576.39l-16.84,6a17.92,17.92,0,0,1-22.83-10.84l-3-8.42a17.92,17.92,0,0,1,10.84-22.83l16.84-6a17.92,17.92,0,0,1,22.83,10.84l3,8.42A17.92,17.92,0,0,1,691.27,576.39Z"/><path id="button-51" data-name="button" class="cls-3" d="M758.62,552.41l-16.84,6A17.92,17.92,0,0,1,719,547.56l-3-8.42a17.92,17.92,0,0,1,10.84-22.83l16.84-6a17.92,17.92,0,0,1,22.83,10.84l3,8.42A17.92,17.92,0,0,1,758.62,552.41Z"/></g><g id="_01-2" data-name="01"><path id="button-52" data-name="button" class="cls-3" d="M333.56,637.31l-16.84,6a17.92,17.92,0,0,1-22.83-10.84l-3-8.42a17.92,17.92,0,0,1,10.84-22.83l16.84-6a17.92,17.92,0,0,1,22.83,10.84l3,8.42A17.92,17.92,0,0,1,333.56,637.31Z"/><path id="button-53" data-name="button" class="cls-3" d="M400.91,613.34l-16.84,6a17.92,17.92,0,0,1-22.83-10.84l-3-8.42a17.92,17.92,0,0,1,10.84-22.83l16.84-6a17.92,17.92,0,0,1,22.83,10.84l3,8.42A17.92,17.92,0,0,1,400.91,613.34Z"/><path id="button-54" data-name="button" class="cls-3" d="M468.25,589.37l-16.84,6a17.92,17.92,0,0,1-22.83-10.84l-3-8.42a17.92,17.92,0,0,1,10.84-22.83l16.84-6a17.92,17.92,0,0,1,22.83,10.84l3,8.42A17.92,17.92,0,0,1,468.25,589.37Z"/><path id="button-55" data-name="button" class="cls-3" d="M535.6,565.4l-16.84,6a17.92,17.92,0,0,1-22.83-10.84l-3-8.42a17.92,17.92,0,0,1,10.84-22.83l16.84-6a17.92,17.92,0,0,1,22.83,10.84l3,8.42A17.92,17.92,0,0,1,535.6,565.4Z"/><path id="button-56" data-name="button" class="cls-3" d="M602.95,541.43l-16.84,6a17.92,17.92,0,0,1-22.83-10.84l-3-8.42a17.92,17.92,0,0,1,10.84-22.83l16.84-6a17.92,17.92,0,0,1,22.83,10.84l3,8.42A17.92,17.92,0,0,1,602.95,541.43Z"/><path id="button-57" data-name="button" class="cls-3" d="M670.3,517.46l-16.84,6a17.92,17.92,0,0,1-22.83-10.84l-3-8.42a17.92,17.92,0,0,1,10.84-22.83l16.84-6a17.92,17.92,0,0,1,22.83,10.84l3,8.42A17.92,17.92,0,0,1,670.3,517.46Z"/><path id="button-58" data-name="button" class="cls-3" d="M737.65,493.48l-16.84,6A17.92,17.92,0,0,1,698,488.63l-3-8.42a17.92,17.92,0,0,1,10.84-22.83l16.84-6a17.92,17.92,0,0,1,22.83,10.84l3,8.42A17.92,17.92,0,0,1,737.65,493.48Z"/></g></g><path class="cls-4" d="M51,205.79,74.93,273A76.14,76.14,0,0,1-68.52,324.06l-23.92-67.22a76.14,76.14,0,0,1,46.2-97.26A76.14,76.14,0,0,1,51,205.79Z"/><path class="cls-5" d="M32.22,212.47a56.19,56.19,0,0,0-71.78-34.1,56.19,56.19,0,0,0-34.1,71.78l23.92,67.22A56.19,56.19,0,0,0,56.15,279.69Z"/><g id="icon-2" data-name="icon"><path id="base-2" data-name="base" class="cls-6" d="M112.09,804.85-19.33,851.63a20.73,20.73,0,0,1-26.4-12.54L-135.82,586a20.73,20.73,0,0,1,12.54-26.4L8.14,512.8a20.73,20.73,0,0,1,26.4,12.54l90.09,253.11A20.73,20.73,0,0,1,112.09,804.85Z"/><rect id="screen" class="cls-7" x="-80.51" y="573.72" width="149.83" height="217" transform="translate(-229.09 37.62) rotate(-19.59)"/><circle id="nav" class="cls-8" cx="38.62" cy="807.97" r="10.33" transform="translate(-268.7 59.73) rotate(-19.59)"/></g><rect class="cls-9" x="24.87" y="941.21" width="317" height="427" transform="matrix(0.94, -0.34, 0.34, 0.94, -376.59, 128.34)"/><path class="cls-10" d="M268,886.1A24.89,24.89,0,0,0,236.3,871l-273.65,97.4a24.89,24.89,0,0,0-15.07,31.72L99.78,1427.72a24.89,24.89,0,0,0,31.72,15.07l273.79-97.45a24.89,24.89,0,0,0,15.07-31.72L268,886.1Zm-2.4,499.74A13.81,13.81,0,1,1,274,1368.2,13.89,13.89,0,0,1,265.62,1385.84Zm133-86.33L107.69,1403.07l-137.35-385.9L261.28,913.61Z"/><path class="cls-11" d="M208.42,432.28a24.28,24.28,0,0,0-14.87,14.45,2.15,2.15,0,0,0,0,1.45l7.72,21.68a2.16,2.16,0,0,0,.92,1.12,24.29,24.29,0,0,0,20.66,1.8,25,25,0,0,0,9.32-5.87l9.46,26.57,12.15-4.33L237.91,444.6C233.94,433.44,220.7,427.91,208.42,432.28Zm2.87,24.08a3.23,3.23,0,1,1,2-4.12A3.23,3.23,0,0,1,211.29,456.36Z"/><path class="cls-12" d="M243.78,499.57a6.45,6.45,0,0,0,12.15-4.33l-.72-2-12.15,4.33Z"/><path class="cls-13" d="M250.28,391.51a24.28,24.28,0,0,0-19.87,6,2.15,2.15,0,0,0-.67,1.29l-3.17,22.79a2.16,2.16,0,0,0,.3,1.42,24.29,24.29,0,0,0,17.49,11.14,25,25,0,0,0,11-.9l-3.88,27.94,12.78,1.78,6.51-46.85C272.38,404.32,263.2,393.3,250.28,391.51Zm-8.58,22.68a3.22,3.22,0,1,1,3.64-2.75A3.23,3.23,0,0,1,241.7,414.19Z"/><path class="cls-12" d="M250.57,467.52a6.45,6.45,0,0,0,12.78,1.78l.3-2.13-12.78-1.78Z"/><circle class="cls-13" cx="377.25" cy="105.44" r="157" transform="matrix(0.94, -0.34, 0.34, 0.94, -13.52, 132.61)"/><circle class="cls-14" cx="376.61" cy="105.14" r="98.5" transform="translate(-13.45 132.37) rotate(-19.59)"/><g id="icon-3" data-name="icon"><path id="base-3" data-name="base" class="cls-15" d="M724.09,1259.17l-131.42,46.78c-10.71,3.81-23-3-27.33-15.16L463.11,1003.6c-4.32-12.15.9-25.21,11.61-29L606.14,927.8c10.71-3.81,23,3,27.33,15.16L735.7,1230.15C740,1242.3,734.8,1255.36,724.09,1259.17Z"/><line class="cls-16" x1="609" y1="1283" x2="700" y2="1251"/></g><rect class="cls-17" y="993" width="750" height="341"/></svg>
