<svg width="802" height="602" xmlns="http://www.w3.org/2000/svg">
 <defs>
  <style>.cls-1,.cls-6,.cls-7,.cls-9{fill:none;}.cls-2,.cls-5{fill:#fff;}.cls-3{clip-path:url(#clip-path);}.cls-10,.cls-4,.cls-5,.cls-8{fill-rule:evenodd;}.cls-6,.cls-7{stroke:#fff;}.cls-6,.cls-7,.cls-9{stroke-linecap:round;stroke-linejoin:round;}.cls-6,.cls-9{stroke-width:0.71px;}.cls-7{stroke-width:1.42px;}.cls-11,.cls-8{fill:#e5692f;}.cls-9{stroke:#91673b;}.cls-10{fill:#f5cdbf;}</style>
  <clipPath id="clip-path">
   <rect id="svg_1" height="83" width="510.77" y="166" x="20" class="cls-1"/>
  </clipPath>
 </defs>
 <title>web-title</title>
 <g>
  <title>background</title>
  <rect fill="none" id="canvas_background" height="604" width="804" y="-1" x="-1"/>
 </g>
 <g>
  <title>Layer 1</title>
  <rect x="1" y="1" id="svg_2" height="83" width="510" class="cls-2"/>
  <g id="svg_3" class="cls-3">
   <g id="svg_4" class="cls-3">
    <path id="svg_5" d="m146.82,55.78a41.64,41.64 0 0 0 7.15,0c2.65,-0.24 4.12,-0.34 6.13,-1.41c7,-3.76 6.75,-15.76 -0.11,-19.57c-2.62,-1.46 -9.44,-2.44 -13.11,-1.72l-0.06,22.7zm-2.94,-19.7c4.68,0.51 14.5,0.28 17.84,-1.55c8.9,-4.9 9.34,-19.88 -0.23,-25.32c-3.48,-2 -12.6,-2.42 -17.58,-1.83l-0.03,28.7z" class="cls-4"/>
    <path id="svg_6" d="m283.29,40.01c-11,2.4 -7.25,18.5 3.16,16.42c10.94,-2.17 7.4,-18.71 -3.16,-16.42m9.67,15.72l0.11,3.18c4.12,0.19 3,0.51 3,-10.58c0,-3.16 0.27,-7.82 -0.05,-10.81l-2.87,-0.1l-0.16,3.29c-1,-0.32 -1.86,-2.3 -5.06,-3.33a11.22,11.22 0 0 0 -14.43,10.71a11.06,11.06 0 0 0 17,9.49a19.82,19.82 0 0 1 2.42,-1.85" class="cls-4"/>
    <path id="svg_7" d="m224.96,40.06c-11.43,3.1 -6.06,19.29 4,16.25c11.05,-3.36 5.85,-18.9 -4,-16.25m10.07,15.7l0,2.95l2.9,0l0,-21.21l-3,0l0,3.05c-1.52,-0.44 -1.53,-2.16 -5.24,-3.23a12.2,12.2 0 0 0 -7.57,0.45c-9.57,4.4 -8.32,17.48 0.3,20.76a11.57,11.57 0 0 0 7.28,0.27a9.57,9.57 0 0 0 2.9,-1.3c0.76,-0.52 1.61,-1.71 2.44,-1.77" class="cls-4"/>
    <path id="svg_8" d="m245.85,31.74l0,26.93l3.07,0.06c0.36,-14.87 -1.88,-13.72 3.57,-13.71c2.28,0 9.81,-0.16 11,0.11l0.05,13.7c3.78,0.06 3,1 3,-7.07c0,-5.27 0.3,-18 0,-21.66l-3,-0.08l-0.04,11.92c-1.6,0.2 -13.34,0.23 -14.52,-0.07l0,-11.85c-3.79,-0.13 -3.06,-0.06 -3.06,1.71" class="cls-4"/>
    <path id="svg_9" d="m333.89,58.69c0.61,-0.58 0.29,-7.6 0.26,-8.81c1.34,0.38 2.43,1.78 3.35,2.59l3.12,2.73c4.71,4.14 3.13,3.67 7.86,3.64c-0.27,-1.76 -10.83,-9.07 -11.93,-11.23c1.68,-2.07 11.21,-9 11.34,-10.17c-4.41,-0.26 -4,0 -7.51,3.06c-1.14,1 -5.09,4.65 -6.21,5l0,-16.27l-3.11,-0.07l0,29c0.13,1.29 2.43,1 2.88,0.58" class="cls-4"/>
    <path id="svg_10" d="m324.36,54.45a4.5,4.5 0 0 0 -2.27,-1.44a11.8,11.8 0 0 1 -4,3c-4.88,2 -12.29,-0.77 -12.44,-7.66c-0.21,-9.28 12,-11.35 16.34,-5a4.32,4.32 0 0 0 2.36,-1.31c-0.67,-3.66 -8.29,-6 -13.58,-4.5a11.08,11.08 0 0 0 -0.17,21.36c5,1.53 12.5,-0.75 13.77,-4.4" class="cls-4"/>
    <path id="svg_11" d="m352.62,54.35a4.35,4.35 0 0 0 -1.61,1.81c1.07,2.77 6.48,4 9.6,2.37c2.81,-1.51 4.61,-5.75 2.06,-9c-2,-2.49 -6.53,-3.58 -7.74,-5.7c-1.48,-2.59 1.64,-5.38 5,-3.53c1,0.54 1.14,1.12 2.21,1.27a4.13,4.13 0 0 0 1.62,-1.79c-0.74,-1.33 -5.85,-4.4 -9.53,-1.81a5.61,5.61 0 0 0 -0.32,9.05c2.25,2 7.14,3 7,6.2a3.55,3.55 0 0 1 -3.41,3.28c-2.65,0.17 -3.27,-1.58 -4.88,-2.12" class="cls-4"/>
    <path id="svg_12" d="m183.91,56.5l0,-4.33l2.81,0l0,4.23c2.76,0 5.37,-2.59 6.27,-5.21c1.56,-4.56 0.05,-3.29 -8,-3.29c-1.89,0 -6.84,-0.23 -8.36,0.11c-0.48,4.52 4.28,9 7.2,8.44" class="cls-4"/>
    <path id="svg_13" d="m204.81,39.83c-0.08,-2.84 0.39,-2.52 -2.83,-2.4c-0.55,2.18 -0.23,17.95 -0.14,21.27l3,0c0.07,-4.9 -0.88,-14 1.9,-17.28c1.3,-1.54 2.36,-1.61 4.49,-1.34a4.11,4.11 0 0 0 1.43,-2.45c-4.53,-2.18 -6.67,1.77 -7.82,2.21" class="cls-4"/>
    <path id="svg_14" d="m177.5,45.13l15.3,0c0,-3.12 -7.19,-8.09 -12.61,-3.85c-0.82,0.63 -2.77,2.27 -2.69,3.84" class="cls-4"/>
    <path id="svg_15" d="m104.13,33.12l0,0a2.51,2.51 0 0 1 0.71,1c1.16,0.08 1.72,-0.45 1.83,-1.43c-1.18,0.56 -2.25,-0.93 -2.54,0.41m-10.16,-0.71l0,0a6.61,6.61 0 0 0 -2.24,1.22c-1.23,2.8 7,4 5.49,1c-0.58,0.1 -1.09,0.52 -1.73,0.51a2.44,2.44 0 0 1 -1.83,-1c0.41,-0.28 0.84,0.32 1.42,0.41a2.84,2.84 0 0 0 1.93,-0.41l0,-0.71a2.11,2.11 0 0 1 -3,-1m-4.57,0.1l0,0c-0.17,0.83 0.65,1.51 1.83,1.32a6.88,6.88 0 0 1 0.71,-1.12c-0.54,-0.86 -1.52,0.3 -2.54,-0.2m13.22,-3.15l0,0c-0.31,0 -0.41,0.13 -0.61,0.2c-0.51,0.19 -1.88,0.14 -2.54,0.71a3.13,3.13 0 0 0 -0.61,2.44c0.18,0.69 1.31,1 1.94,0.71s0.87,-1.23 1.42,-1.93c-0.07,1.41 2.62,1.61 2.13,-0.31c-0.53,-0.83 -1.77,-0.08 -2.24,-0.4c0.33,-0.32 0.55,-0.74 1.32,-0.61a1.1,1.1 0 0 0 -0.81,-0.81m-8.13,0.2l0,0c-0.4,-0.77 -2.08,-0.29 -1.83,0.41c0.68,-0.07 1.38,0.28 1.12,0.81c-0.51,-0.24 -1.67,-0.37 -2,0.1c-0.13,1.08 0.21,1.69 1.32,1.53c0.36,-0.25 0.49,-0.73 0.81,-1c0.44,0.23 0.3,0.82 0.61,1.22a2.12,2.12 0 0 0 1.63,0.71c0.56,-0.07 0.71,-0.49 1.12,-0.92q0.11,-2.91 -2.74,-2.84m11.59,0l0,0c1.46,0.56 1,2.57 0.92,4.07c1.69,-0.86 1.32,-4.66 -1,-4.57c-0.08,0.29 0.14,0.26 0.1,0.51m-17,3.86l0,0a18.88,18.88 0 0 1 -0.31,-2.24c0.07,-1.2 1,-1.44 1.22,-2.34c-2.29,-0.15 -2.67,3.84 -0.91,4.57m14.13,-5.39l0,0a7.13,7.13 0 0 1 -0.41,0.91c1,0.36 1.21,1.57 1.93,2.24c-0.13,0.64 0.33,0.69 0.41,1.12c1.52,0.61 2,-1.16 1.12,-2.14c-0.5,-0.5 -1.75,0.15 -2.13,-0.3a2.1,2.1 0 0 1 1.43,-0.51c-0.19,-1 -1,-1.46 -2.34,-1.32m-12.81,1.12l0,0c0.34,0.11 1.52,-0.13 1.43,0.71c-1.52,-0.38 -2.82,0.09 -2.54,1.83c0.33,0.53 1.37,0.48 1.83,0.1c0,-1.24 1,-1.55 1.22,-2.54c0.18,-0.29 0.68,-0.27 0.81,-0.61c-0.07,-0.34 -0.32,-0.5 -0.41,-0.82c-1.35,-0.13 -2.1,0.34 -2.34,1.32m9,0.71l0,0c0,-0.14 0.22,-0.12 0.3,-0.2c-0.09,-0.51 -0.48,-0.59 -0.51,-1.12s0.17,-1.26 -0.31,-1.52c-0.44,0.84 -0.45,2.57 0.51,2.85m-2.74,-1.22l0,0c0,0.37 -0.44,0.38 -0.51,0.71c1.1,1.09 1.54,-2.06 0.71,-2.64a3.59,3.59 0 0 0 -0.2,1.93m6,-0.41l0,0c0.26,-1 -1,-2.13 -1.53,-2.24c-1.08,-0.21 -1.77,0.35 -1.52,1.63c0.75,-0.09 1.43,-0.16 1.52,0.61c-0.29,0.14 -1.05,-0.35 -1.42,0.1c0.17,1.61 2.72,0.79 2.95,-0.1m-9.45,-0.51l0,0c0.09,1.22 2.66,2.06 3.05,0.51c-0.31,-0.61 -1.14,0 -1.53,-0.2c0.07,-0.87 1.08,-0.59 1.53,-0.61c0.38,-0.78 -0.24,-1.37 -0.61,-1.73c-1.22,-0.07 -2.52,1 -2.44,2m11.08,7.22l0,0a4.13,4.13 0 0 0 -0.1,-1.22a24,24 0 0 0 -2.13,-1.12a2.18,2.18 0 0 1 -3.15,1c-0.1,1.1 1,1.24 1.93,1.12c0.59,-0.08 1.06,-0.7 1.42,-0.41c-0.54,1.19 -2.34,1.08 -3.56,0.61c-0.39,0.42 -0.08,1.1 0.2,1.42c1.83,0.53 4.54,0 5.39,-1.42" class="cls-5"/>
    <path id="svg_16" d="m104.13,33.12l0,0a2.51,2.51 0 0 1 0.71,1c1.16,0.08 1.72,-0.45 1.83,-1.43c-1.17,0.58 -2.24,-0.91 -2.54,0.43zm-10.16,-0.71l0,0a6.61,6.61 0 0 0 -2.24,1.22c-1.23,2.8 7,4 5.49,1c-0.58,0.1 -1.09,0.52 -1.73,0.51a2.44,2.44 0 0 1 -1.83,-1c0.41,-0.28 0.84,0.32 1.42,0.41a2.84,2.84 0 0 0 1.93,-0.41l0,-0.71a2.11,2.11 0 0 1 -3.04,-1.03l0,0.01zm-4.57,0.1l0,0c-0.17,0.83 0.65,1.51 1.83,1.32a6.88,6.88 0 0 1 0.71,-1.12c-0.55,-0.86 -1.52,0.29 -2.55,-0.21l0.01,0.01zm13.22,-3.15l0,0c-0.31,0 -0.41,0.13 -0.61,0.2c-0.51,0.19 -1.88,0.14 -2.54,0.71a3.13,3.13 0 0 0 -0.61,2.44c0.18,0.69 1.31,1 1.94,0.71s0.87,-1.23 1.42,-1.93c-0.07,1.41 2.62,1.61 2.13,-0.31c-0.53,-0.83 -1.77,-0.08 -2.24,-0.4c0.33,-0.32 0.55,-0.74 1.32,-0.61a1.1,1.1 0 0 0 -0.82,-0.82l0.01,0.01zm-8.13,0.2l0,0c-0.4,-0.77 -2.08,-0.29 -1.83,0.41c0.68,-0.07 1.38,0.28 1.12,0.81c-0.51,-0.24 -1.67,-0.37 -2,0.1c-0.13,1.08 0.21,1.69 1.32,1.53c0.36,-0.25 0.49,-0.73 0.81,-1c0.44,0.23 0.3,0.82 0.61,1.22a2.12,2.12 0 0 0 1.63,0.71c0.56,-0.07 0.71,-0.49 1.12,-0.92q0.06,-2.92 -2.77,-2.86l-0.01,0zm11.59,0l0,0c1.46,0.56 1,2.57 0.92,4.07c1.69,-0.86 1.32,-4.66 -1,-4.57c-0.12,0.28 0.11,0.25 0.06,0.5l0.02,0zm-17,3.86l0,0a18.88,18.88 0 0 1 -0.31,-2.24c0.07,-1.2 1,-1.44 1.22,-2.34c-2.28,-0.14 -2.66,3.85 -0.9,4.58l-0.01,0zm14.13,-5.39l0,0a7.13,7.13 0 0 1 -0.41,0.91c1,0.36 1.21,1.57 1.93,2.24c-0.13,0.64 0.33,0.69 0.41,1.12c1.52,0.61 2,-1.16 1.12,-2.14c-0.5,-0.5 -1.75,0.15 -2.13,-0.3a2.1,2.1 0 0 1 1.43,-0.51c-0.19,-1.03 -0.98,-1.45 -2.34,-1.32l-0.01,0zm-12.81,1.12l0,0c0.34,0.11 1.52,-0.13 1.43,0.71c-1.52,-0.38 -2.82,0.09 -2.54,1.83c0.33,0.53 1.37,0.48 1.83,0.1c0,-1.24 1,-1.55 1.22,-2.54c0.18,-0.29 0.68,-0.27 0.81,-0.61c-0.07,-0.34 -0.32,-0.5 -0.41,-0.82c-1.35,-0.13 -2.1,0.35 -2.33,1.33l-0.01,0zm9,0.71l0,0c0,-0.14 0.22,-0.12 0.3,-0.2c-0.09,-0.51 -0.48,-0.59 -0.51,-1.12s0.17,-1.26 -0.31,-1.52c-0.38,0.84 -0.38,2.57 0.62,2.84l-0.1,0zm-2.74,-1.22l0,0c0,0.37 -0.44,0.38 -0.51,0.71c1.1,1.09 1.54,-2.06 0.71,-2.64a3.59,3.59 0 0 0 -0.15,1.93l-0.05,0zm6,-0.41l0,0c0.26,-1 -1,-2.13 -1.53,-2.24c-1.08,-0.21 -1.77,0.35 -1.52,1.63c0.75,-0.09 1.43,-0.16 1.52,0.61c-0.29,0.14 -1.05,-0.35 -1.42,0.1c0.22,1.62 2.79,0.8 3,-0.09l-0.05,-0.01zm-9.45,-0.51l0,0c0.09,1.22 2.66,2.06 3.05,0.51c-0.31,-0.61 -1.14,0 -1.53,-0.2c0.07,-0.87 1.08,-0.59 1.53,-0.61c0.38,-0.78 -0.24,-1.37 -0.61,-1.73c-1.15,-0.07 -2.47,0.98 -2.39,2.04l-0.05,-0.01zm11.08,7.22l0,0a4.13,4.13 0 0 0 -0.1,-1.22a24,24 0 0 0 -2.13,-1.12a2.18,2.18 0 0 1 -3.15,1c-0.1,1.1 1,1.24 1.93,1.12c0.59,-0.08 1.06,-0.7 1.42,-0.41c-0.54,1.19 -2.34,1.08 -3.56,0.61c-0.39,0.42 -0.08,1.1 0.2,1.42c1.88,0.56 4.6,-0.01 5.44,-1.39l-0.05,-0.01z" class="cls-6"/>
    <path id="svg_17" d="m101.96,45.2c11.55,-1.61 21.26,0.17 21.69,4s-8.58,8.2 -20.12,9.82s-21.26,-0.18 -21.69,-4s8.57,-8.21 20.12,-9.82z" class="cls-7"/>
    <path id="svg_18" d="m101.96,45.2c11.55,-1.61 21.26,0.17 21.69,4s-8.58,8.2 -20.12,9.82s-21.26,-0.18 -21.69,-4s8.58,-8.2 20.13,-9.82" class="cls-8"/>
    <path id="svg_19" d="m83.6,20.41c2.16,0.09 5.4,3.07 7.83,4.88a18.25,18.25 0 0 1 8.74,-1.22a13.07,13.07 0 0 1 4.27,1.42c1.28,-0.93 2.45,-2.06 3.87,-2.95s2.78,-2 4.78,-1.73a8.57,8.57 0 0 1 0.1,4.37c-0.37,2.6 -1,5.28 -1.63,7.93a31.92,31.92 0 0 0 -1,3.76a15.56,15.56 0 0 0 0.81,5.29c0.42,1.58 0.63,3.28 1.63,4.37c5.41,4.49 10.18,10.94 11.18,14.13a2.82,2.82 0 0 1 -0.61,3.15a3.64,3.64 0 0 1 -4.78,-0.1a28,28 0 0 1 -3.25,-3.35a32.62,32.62 0 0 0 -2.44,-2.44a1.47,1.47 0 0 0 -0.91,-0.48a7.42,7.42 0 0 0 -2,0.51a45.34,45.34 0 0 1 -6,1.19c0.78,1 2.44,2.43 3.46,3.66c0.58,0.71 1.6,1.77 1.42,3.05c-0.09,0.68 -0.53,0.7 -0.81,1.32c-1.12,0.48 -1.7,1.11 -3.46,0.91a9.25,9.25 0 0 1 -2.85,-0.91c-0.45,-0.23 -1,-0.58 -1.52,-0.92c-12.66,-8 -13.19,-15.73 -14.64,-28.77c-0.4,-3.61 -1.93,-8.14 -2.54,-12.1c-0.32,-1.66 -0.9,-4.41 0.35,-4.97z" class="cls-7"/>
    <path id="svg_20" d="m83.6,20.41c2.16,0.09 5.4,3.07 7.83,4.88a18.25,18.25 0 0 1 8.74,-1.22a13.07,13.07 0 0 1 4.27,1.42c1.28,-0.93 2.45,-2.06 3.87,-2.95s2.78,-2 4.78,-1.73a8.57,8.57 0 0 1 0.1,4.37c-0.37,2.6 -1,5.28 -1.63,7.93a31.92,31.92 0 0 0 -1,3.76a15.56,15.56 0 0 0 0.81,5.29c0.42,1.58 0.63,3.28 1.63,4.37c5.41,4.49 10.18,10.94 11.18,14.13a2.82,2.82 0 0 1 -0.61,3.15a3.64,3.64 0 0 1 -4.78,-0.1a28,28 0 0 1 -3.25,-3.35a32.62,32.62 0 0 0 -2.44,-2.44a1.47,1.47 0 0 0 -0.91,-0.48a7.42,7.42 0 0 0 -2,0.51a45.34,45.34 0 0 1 -6,1.19c0.78,1 2.44,2.43 3.46,3.66c0.58,0.71 1.6,1.77 1.42,3.05c-0.09,0.68 -0.53,0.7 -0.81,1.32c-1.12,0.48 -1.7,1.11 -3.46,0.91a9.25,9.25 0 0 1 -2.85,-0.91c-0.45,-0.23 -1,-0.58 -1.52,-0.92c-12.66,-8 -13.19,-15.73 -14.64,-28.77c-0.4,-3.61 -1.93,-8.14 -2.54,-12.1c-0.25,-1.67 -0.84,-4.42 0.41,-5" class="cls-4"/>
    <path id="svg_21" d="m104.13,33.12l0,0a2.51,2.51 0 0 1 0.71,1c1.16,0.08 1.72,-0.45 1.83,-1.43c-1.17,0.58 -2.24,-0.91 -2.54,0.43zm-10.16,-0.71l0,0a6.61,6.61 0 0 0 -2.24,1.22c-1.23,2.8 7,4 5.49,1c-0.58,0.1 -1.09,0.52 -1.73,0.51a2.44,2.44 0 0 1 -1.83,-1c0.41,-0.28 0.84,0.32 1.42,0.41a2.84,2.84 0 0 0 1.93,-0.41l0,-0.71a2.11,2.11 0 0 1 -3.04,-1.03l0,0.01zm-4.57,0.1l0,0c-0.17,0.83 0.65,1.51 1.83,1.32a6.88,6.88 0 0 1 0.71,-1.12c-0.55,-0.86 -1.52,0.29 -2.55,-0.21l0.01,0.01zm13.22,-3.15l0,0c-0.31,0 -0.41,0.13 -0.61,0.2c-0.51,0.19 -1.88,0.14 -2.54,0.71a3.13,3.13 0 0 0 -0.61,2.44c0.18,0.69 1.31,1 1.94,0.71s0.87,-1.23 1.42,-1.93c-0.07,1.41 2.62,1.61 2.13,-0.31c-0.53,-0.83 -1.77,-0.08 -2.24,-0.4c0.33,-0.32 0.55,-0.74 1.32,-0.61a1.1,1.1 0 0 0 -0.82,-0.82l0.01,0.01zm-8.13,0.2l0,0c-0.4,-0.77 -2.08,-0.29 -1.83,0.41c0.68,-0.07 1.38,0.28 1.12,0.81c-0.51,-0.24 -1.67,-0.37 -2,0.1c-0.13,1.08 0.21,1.69 1.32,1.53c0.36,-0.25 0.49,-0.73 0.81,-1c0.44,0.23 0.3,0.82 0.61,1.22a2.12,2.12 0 0 0 1.63,0.71c0.56,-0.07 0.71,-0.49 1.12,-0.92q0.06,-2.92 -2.77,-2.86l-0.01,0zm11.59,0l0,0c1.46,0.56 1,2.57 0.92,4.07c1.69,-0.86 1.32,-4.66 -1,-4.57c-0.12,0.28 0.11,0.25 0.06,0.5l0.02,0zm-17,3.86l0,0a18.88,18.88 0 0 1 -0.31,-2.24c0.07,-1.2 1,-1.44 1.22,-2.34c-2.28,-0.14 -2.66,3.85 -0.9,4.58l-0.01,0zm14.13,-5.39l0,0a7.13,7.13 0 0 1 -0.41,0.91c1,0.36 1.21,1.57 1.93,2.24c-0.13,0.64 0.33,0.69 0.41,1.12c1.52,0.61 2,-1.16 1.12,-2.14c-0.5,-0.5 -1.75,0.15 -2.13,-0.3a2.1,2.1 0 0 1 1.43,-0.51c-0.19,-1.03 -0.98,-1.45 -2.34,-1.32l-0.01,0zm-12.81,1.12l0,0c0.34,0.11 1.52,-0.13 1.43,0.71c-1.52,-0.38 -2.82,0.09 -2.54,1.83c0.33,0.53 1.37,0.48 1.83,0.1c0,-1.24 1,-1.55 1.22,-2.54c0.18,-0.29 0.68,-0.27 0.81,-0.61c-0.07,-0.34 -0.32,-0.5 -0.41,-0.82c-1.35,-0.13 -2.1,0.35 -2.33,1.33l-0.01,0zm9,0.71l0,0c0,-0.14 0.22,-0.12 0.3,-0.2c-0.09,-0.51 -0.48,-0.59 -0.51,-1.12s0.17,-1.26 -0.31,-1.52c-0.38,0.84 -0.38,2.57 0.62,2.84l-0.1,0zm-2.74,-1.22l0,0c0,0.37 -0.44,0.38 -0.51,0.71c1.1,1.09 1.54,-2.06 0.71,-2.64a3.59,3.59 0 0 0 -0.15,1.93l-0.05,0zm6,-0.41l0,0c0.26,-1 -1,-2.13 -1.53,-2.24c-1.08,-0.21 -1.77,0.35 -1.52,1.63c0.75,-0.09 1.43,-0.16 1.52,0.61c-0.29,0.14 -1.05,-0.35 -1.42,0.1c0.22,1.62 2.79,0.8 3,-0.09l-0.05,-0.01zm-9.45,-0.51l0,0c0.09,1.22 2.66,2.06 3.05,0.51c-0.31,-0.61 -1.14,0 -1.53,-0.2c0.07,-0.87 1.08,-0.59 1.53,-0.61c0.38,-0.78 -0.24,-1.37 -0.61,-1.73c-1.15,-0.07 -2.47,0.98 -2.39,2.04l-0.05,-0.01zm11.08,7.22l0,0a4.13,4.13 0 0 0 -0.1,-1.22a24,24 0 0 0 -2.13,-1.12a2.18,2.18 0 0 1 -3.15,1c-0.1,1.1 1,1.24 1.93,1.12c0.59,-0.08 1.06,-0.7 1.42,-0.41c-0.54,1.19 -2.34,1.08 -3.56,0.61c-0.39,0.42 -0.08,1.1 0.2,1.42c1.88,0.56 4.6,-0.01 5.44,-1.39l-0.05,-0.01z" class="cls-9"/>
    <path id="svg_22" d="m104.13,33.12l0,0a2.51,2.51 0 0 1 0.71,1c1.16,0.08 1.72,-0.45 1.83,-1.43c-1.17,0.58 -2.24,-0.91 -2.54,0.43zm-10.16,-0.71l0,0a6.61,6.61 0 0 0 -2.24,1.22c-1.23,2.8 7,4 5.49,1c-0.58,0.1 -1.09,0.52 -1.73,0.51a2.44,2.44 0 0 1 -1.83,-1c0.41,-0.28 0.84,0.32 1.42,0.41a2.84,2.84 0 0 0 1.93,-0.41l0,-0.71a2.11,2.11 0 0 1 -3.04,-1.03l0,0.01zm-4.57,0.1l0,0c-0.17,0.83 0.65,1.51 1.83,1.32a6.88,6.88 0 0 1 0.71,-1.12c-0.55,-0.86 -1.52,0.29 -2.55,-0.21l0.01,0.01zm13.22,-3.15l0,0c-0.31,0 -0.41,0.13 -0.61,0.2c-0.51,0.19 -1.88,0.14 -2.54,0.71a3.13,3.13 0 0 0 -0.61,2.44c0.18,0.69 1.31,1 1.94,0.71s0.87,-1.23 1.42,-1.93c-0.07,1.41 2.62,1.61 2.13,-0.31c-0.53,-0.83 -1.77,-0.08 -2.24,-0.4c0.33,-0.32 0.55,-0.74 1.32,-0.61a1.1,1.1 0 0 0 -0.82,-0.82l0.01,0.01zm-8.13,0.2l0,0c-0.4,-0.77 -2.08,-0.29 -1.83,0.41c0.68,-0.07 1.38,0.28 1.12,0.81c-0.51,-0.24 -1.67,-0.37 -2,0.1c-0.13,1.08 0.21,1.69 1.32,1.53c0.36,-0.25 0.49,-0.73 0.81,-1c0.44,0.23 0.3,0.82 0.61,1.22a2.12,2.12 0 0 0 1.63,0.71c0.56,-0.07 0.71,-0.49 1.12,-0.92q0.06,-2.92 -2.77,-2.86l-0.01,0zm11.59,0l0,0c1.46,0.56 1,2.57 0.92,4.07c1.69,-0.86 1.32,-4.66 -1,-4.57c-0.12,0.28 0.11,0.25 0.06,0.5l0.02,0zm-17,3.86l0,0a18.88,18.88 0 0 1 -0.31,-2.24c0.07,-1.2 1,-1.44 1.22,-2.34c-2.28,-0.14 -2.66,3.85 -0.9,4.58l-0.01,0zm14.13,-5.39l0,0a7.13,7.13 0 0 1 -0.41,0.91c1,0.36 1.21,1.57 1.93,2.24c-0.13,0.64 0.33,0.69 0.41,1.12c1.52,0.61 2,-1.16 1.12,-2.14c-0.5,-0.5 -1.75,0.15 -2.13,-0.3a2.1,2.1 0 0 1 1.43,-0.51c-0.19,-1.03 -0.98,-1.45 -2.34,-1.32l-0.01,0zm-12.81,1.12l0,0c0.34,0.11 1.52,-0.13 1.43,0.71c-1.52,-0.38 -2.82,0.09 -2.54,1.83c0.33,0.53 1.37,0.48 1.83,0.1c0,-1.24 1,-1.55 1.22,-2.54c0.18,-0.29 0.68,-0.27 0.81,-0.61c-0.07,-0.34 -0.32,-0.5 -0.41,-0.82c-1.35,-0.13 -2.1,0.35 -2.33,1.33l-0.01,0zm9,0.71l0,0c0,-0.14 0.22,-0.12 0.3,-0.2c-0.09,-0.51 -0.48,-0.59 -0.51,-1.12s0.17,-1.26 -0.31,-1.52c-0.38,0.84 -0.38,2.57 0.62,2.84l-0.1,0zm-2.74,-1.22l0,0c0,0.37 -0.44,0.38 -0.51,0.71c1.1,1.09 1.54,-2.06 0.71,-2.64a3.59,3.59 0 0 0 -0.15,1.93l-0.05,0zm6,-0.41l0,0c0.26,-1 -1,-2.13 -1.53,-2.24c-1.08,-0.21 -1.77,0.35 -1.52,1.63c0.75,-0.09 1.43,-0.16 1.52,0.61c-0.29,0.14 -1.05,-0.35 -1.42,0.1c0.22,1.62 2.79,0.8 3,-0.09l-0.05,-0.01zm-9.45,-0.51l0,0c0.09,1.22 2.66,2.06 3.05,0.51c-0.31,-0.61 -1.14,0 -1.53,-0.2c0.07,-0.87 1.08,-0.59 1.53,-0.61c0.38,-0.78 -0.24,-1.37 -0.61,-1.73c-1.15,-0.07 -2.47,0.98 -2.39,2.04l-0.05,-0.01zm11.08,7.22l0,0a4.13,4.13 0 0 0 -0.1,-1.22a24,24 0 0 0 -2.13,-1.12a2.18,2.18 0 0 1 -3.15,1c-0.1,1.1 1,1.24 1.93,1.12c0.59,-0.08 1.06,-0.7 1.42,-0.41c-0.54,1.19 -2.34,1.08 -3.56,0.61c-0.39,0.42 -0.08,1.1 0.2,1.42c1.88,0.56 4.6,-0.01 5.44,-1.39l-0.05,-0.01z" class="cls-9"/>
    <path id="svg_23" d="m104.13,33.12l0,0a2.51,2.51 0 0 1 0.71,1c1.16,0.08 1.72,-0.45 1.83,-1.43c-1.18,0.56 -2.25,-0.93 -2.54,0.41m-10.16,-0.71l0,0a6.61,6.61 0 0 0 -2.24,1.22c-1.23,2.8 7,4 5.49,1c-0.58,0.1 -1.09,0.52 -1.73,0.51a2.44,2.44 0 0 1 -1.83,-1c0.41,-0.28 0.84,0.32 1.42,0.41a2.84,2.84 0 0 0 1.93,-0.41l0,-0.71a2.11,2.11 0 0 1 -3,-1m-4.57,0.1l0,0c-0.17,0.83 0.65,1.51 1.83,1.32a6.88,6.88 0 0 1 0.71,-1.12c-0.54,-0.86 -1.52,0.3 -2.54,-0.2m13.22,-3.15l0,0c-0.31,0 -0.41,0.13 -0.61,0.2c-0.51,0.19 -1.88,0.14 -2.54,0.71a3.13,3.13 0 0 0 -0.61,2.44c0.18,0.69 1.31,1 1.94,0.71s0.87,-1.23 1.42,-1.93c-0.07,1.41 2.62,1.61 2.13,-0.31c-0.53,-0.83 -1.77,-0.08 -2.24,-0.4c0.33,-0.32 0.55,-0.74 1.32,-0.61a1.1,1.1 0 0 0 -0.81,-0.81m-8.13,0.2l0,0c-0.4,-0.77 -2.08,-0.29 -1.83,0.41c0.68,-0.07 1.38,0.28 1.12,0.81c-0.51,-0.24 -1.67,-0.37 -2,0.1c-0.13,1.08 0.21,1.69 1.32,1.53c0.36,-0.25 0.49,-0.73 0.81,-1c0.44,0.23 0.3,0.82 0.61,1.22a2.12,2.12 0 0 0 1.63,0.71c0.56,-0.07 0.71,-0.49 1.12,-0.92q0.11,-2.91 -2.74,-2.84m11.59,0l0,0c1.46,0.56 1,2.57 0.92,4.07c1.69,-0.86 1.32,-4.66 -1,-4.57c-0.08,0.29 0.14,0.26 0.1,0.51m-17,3.86l0,0a18.88,18.88 0 0 1 -0.31,-2.24c0.07,-1.2 1,-1.44 1.22,-2.34c-2.29,-0.15 -2.67,3.84 -0.91,4.57m14.13,-5.39l0,0a7.13,7.13 0 0 1 -0.41,0.91c1,0.36 1.21,1.57 1.93,2.24c-0.13,0.64 0.33,0.69 0.41,1.12c1.52,0.61 2,-1.16 1.12,-2.14c-0.5,-0.5 -1.75,0.15 -2.13,-0.3a2.1,2.1 0 0 1 1.43,-0.51c-0.19,-1 -1,-1.46 -2.34,-1.32m-12.81,1.12l0,0c0.34,0.11 1.52,-0.13 1.43,0.71c-1.52,-0.38 -2.82,0.09 -2.54,1.83c0.33,0.53 1.37,0.48 1.83,0.1c0,-1.24 1,-1.55 1.22,-2.54c0.18,-0.29 0.68,-0.27 0.81,-0.61c-0.07,-0.34 -0.32,-0.5 -0.41,-0.82c-1.35,-0.13 -2.1,0.34 -2.34,1.32m9,0.71l0,0c0,-0.14 0.22,-0.12 0.3,-0.2c-0.09,-0.51 -0.48,-0.59 -0.51,-1.12s0.17,-1.26 -0.31,-1.52c-0.44,0.84 -0.45,2.57 0.51,2.85m-2.74,-1.22l0,0c0,0.37 -0.44,0.38 -0.51,0.71c1.1,1.09 1.54,-2.06 0.71,-2.64a3.59,3.59 0 0 0 -0.2,1.93m6,-0.41l0,0c0.26,-1 -1,-2.13 -1.53,-2.24c-1.08,-0.21 -1.77,0.35 -1.52,1.63c0.75,-0.09 1.43,-0.16 1.52,0.61c-0.29,0.14 -1.05,-0.35 -1.42,0.1c0.17,1.61 2.72,0.79 2.95,-0.1m-9.45,-0.51l0,0c0.09,1.22 2.66,2.06 3.05,0.51c-0.31,-0.61 -1.14,0 -1.53,-0.2c0.07,-0.87 1.08,-0.59 1.53,-0.61c0.38,-0.78 -0.24,-1.37 -0.61,-1.73c-1.22,-0.07 -2.52,1 -2.44,2m11.08,7.22l0,0a4.13,4.13 0 0 0 -0.1,-1.22a24,24 0 0 0 -2.13,-1.12a2.18,2.18 0 0 1 -3.15,1c-0.1,1.1 1,1.24 1.93,1.12c0.59,-0.08 1.06,-0.7 1.42,-0.41c-0.54,1.19 -2.34,1.08 -3.56,0.61c-0.39,0.42 -0.08,1.1 0.2,1.42c1.83,0.53 4.54,0 5.39,-1.42" class="cls-10"/>
    <path id="svg_24" d="m431.5,35.38a4.56,4.56 0 0 0 -1.74,-0.83a10.41,10.41 0 0 0 -2.22,-0.29l-5.58,0l-1.77,10.09l5.87,0a9.68,9.68 0 0 0 2.4,-0.33a6.4,6.4 0 0 0 2.06,-1a5.38,5.38 0 0 0 2.26,-3.95a5,5 0 0 0 -0.22,-2.24a3.42,3.42 0 0 0 -1.07,-1.48" class="cls-11"/>
    <path id="svg_25" d="m426.76,46.24l-6.87,0l-1.91,11l6.44,0a9,9 0 0 0 2.6,-0.37a7,7 0 0 0 2.2,-1.08a5.92,5.92 0 0 0 1.59,-1.8a6.43,6.43 0 0 0 0.79,-2.51a5.43,5.43 0 0 0 -0.17,-2.17a4,4 0 0 0 -0.94,-1.62a4.32,4.32 0 0 0 -1.6,-1a6.67,6.67 0 0 0 -2.14,-0.4" class="cls-11"/>
    <path id="svg_26" d="m400.78,42.81a5.3,5.3 0 0 0 -1.38,-0.25a5,5 0 0 0 -2.06,0.35a5.94,5.94 0 0 0 -1.7,1.07a8.12,8.12 0 0 0 -1.36,1.58a13.52,13.52 0 0 0 -1,1.9a15.64,15.64 0 0 0 -0.75,2q-0.3,1 -0.49,1.92q-0.09,0.5 -0.18,1.14c-0.06,0.43 -0.1,0.88 -0.12,1.34a7.73,7.73 0 0 0 0.07,1.36a4,4 0 0 0 0.35,1.21a2.43,2.43 0 0 0 0.73,0.89a2.15,2.15 0 0 0 1.22,0.4a3.88,3.88 0 0 0 1.86,-0.35a6,6 0 0 0 1.61,-1.09a7.71,7.71 0 0 0 1.27,-1.55a8.51,8.51 0 0 0 0.84,-1.71l2.39,-9.57a4.28,4.28 0 0 0 -1.23,-0.65" class="cls-11"/>
    <path id="svg_27" d="m378.5,17.42l-9.57,49.22l19.81,0a9.68,9.68 0 0 1 -5.22,-4.58a13.63,13.63 0 0 1 -1.3,-3.51a18,18 0 0 1 -0.42,-4a23.34,23.34 0 0 1 0.39,-4.19a24.7,24.7 0 0 1 1.23,-4.45a23.76,23.76 0 0 1 2,-4.13a22.15,22.15 0 0 1 2.78,-3.59a17.64,17.64 0 0 1 3.46,-2.82a16.78,16.78 0 0 1 4.1,-1.83a15.51,15.51 0 0 1 4.67,-0.62a13.85,13.85 0 0 1 4.3,0.68a10,10 0 0 1 3.22,1.79a9.51,9.51 0 0 1 2.21,2.69a13,13 0 0 1 1.34,3.42a17.26,17.26 0 0 1 0.42,3.89a24.6,24.6 0 0 1 -0.37,4.18a19.48,19.48 0 0 1 -0.52,2.25a17.34,17.34 0 0 1 -0.85,2.27a13.43,13.43 0 0 1 -1.2,2.11a8.88,8.88 0 0 1 -1.56,1.73a7,7 0 0 1 -2,1.16a6,6 0 0 1 -2.38,0.38a4.35,4.35 0 0 1 -1.48,-0.28a3.67,3.67 0 0 1 -1.17,-0.71a3.17,3.17 0 0 1 -0.78,-1.1a4.36,4.36 0 0 1 -0.34,-1.46a17.54,17.54 0 0 1 -1.14,1.38a7.78,7.78 0 0 1 -1.33,1.16a6.21,6.21 0 0 1 -1.56,0.78a4.9,4.9 0 0 1 -1.8,0.25a3.68,3.68 0 0 1 -1.73,-0.44a3.44,3.44 0 0 1 -1.14,-1.06a4.55,4.55 0 0 1 -0.64,-1.48a9.22,9.22 0 0 1 -0.25,-1.72a13.19,13.19 0 0 1 0,-1.78a15.13,15.13 0 0 1 0.22,-1.64a17.86,17.86 0 0 1 1.6,-4.74a15.82,15.82 0 0 1 1.36,-2.23a9.72,9.72 0 0 1 1.74,-1.84a7.94,7.94 0 0 1 2.12,-1.23a6.52,6.52 0 0 1 2.49,-0.43a6.1,6.1 0 0 1 2.49,0.55a9.66,9.66 0 0 1 2.13,1.42l-2.48,10.57a13.79,13.79 0 0 0 -0.16,1.43a4.35,4.35 0 0 0 0.14,1.43a2.47,2.47 0 0 0 0.65,1.12a2,2 0 0 0 1.35,0.5a4.13,4.13 0 0 0 1.87,-0.34a5,5 0 0 0 1.5,-1a7.5,7.5 0 0 0 1.17,-1.53a12.92,12.92 0 0 0 0.87,-1.8a16.16,16.16 0 0 0 0.61,-1.88c0.16,-0.63 0.29,-1.21 0.39,-1.75a27.78,27.78 0 0 0 0.4,-3.76a16.14,16.14 0 0 0 -0.24,-3.49a11.28,11.28 0 0 0 -1,-3a7.81,7.81 0 0 0 -1.86,-2.4a8.47,8.47 0 0 0 -2.83,-1.59a12.55,12.55 0 0 0 -3.91,-0.62a13.44,13.44 0 0 0 -4.17,0.56a14.49,14.49 0 0 0 -3.65,1.68a16.15,16.15 0 0 0 -2.98,2.5a20.31,20.31 0 0 0 -2.47,3.25a22.3,22.3 0 0 0 -1.82,3.71a23.63,23.63 0 0 0 -1.13,4a22,22 0 0 0 -0.4,3.65a17.07,17.07 0 0 0 0.27,3.54a12.67,12.67 0 0 0 1,3.18a8.84,8.84 0 0 0 1.86,2.59a8.46,8.46 0 0 0 2.78,1.75a10.58,10.58 0 0 0 3.8,0.66a12,12 0 0 0 3.19,-0.35a15.64,15.64 0 0 0 3,-1.09l0.42,1.51a10.4,10.4 0 0 1 -1.65,0.78l66.28,0l9.57,-49.22l-95.7,-0.04zm152.22,21.81a6.57,6.57 0 0 1 -0.53,2.08a6.66,6.66 0 0 1 -1.1,1.69a7.2,7.2 0 0 1 -1.56,1.32a9.78,9.78 0 0 1 -1.92,0.93a5.28,5.28 0 0 1 1.78,0.93a5.44,5.44 0 0 1 1.26,1.44a5.92,5.92 0 0 1 0.71,1.81a7.1,7.1 0 0 1 0.14,2a8,8 0 0 1 -1,3.37a7.79,7.79 0 0 1 -2.1,2.42a9,9 0 0 1 -2.93,1.44a12,12 0 0 1 -3.47,0.46l-9,0l4.66,-26.81l7.55,0a12.48,12.48 0 0 1 3.07,0.43a6.79,6.79 0 0 1 2.46,1.22a5.25,5.25 0 0 1 1.56,2.12a6.49,6.49 0 0 1 0.37,3.09m22.24,19.92l-2.26,0l2.25,-12.85l-110.4,0l-2.25,12.85l-2.25,0l4.66,-26.81l2.25,0l-2.1,12l14.8,0l2.1,-12l2.28,0l90.92,26.81z" class="cls-11"/>
    <polygon id="svg_28" points="51.529998779296875,66.62999725341797 37.529998779296875,66.62999725341797 47.099998474121094,17.420000076293945 61.099998474121094,17.420000076293945 51.529998779296875,66.62999725341797 " class="cls-11"/>
   </g>
  </g>
  <rect fill="white" id="svg_29" height="66.56" width="277.82" y="122.5" x="116.68" class="cls-2"/>
  <path id="svg_30" d="m140.63,166.62c0.88,0.32 1.76,1.08 3.36,2c2.48,1.36 5.84,1.6 10.16,1.6c4.88,0 11,-0.28 15.08,-0.68a8.42,8.42 0 0 0 -0.6,2.24c-3.36,0.2 -10.52,0.4 -14.52,0.4c-4.6,0 -8,-0.36 -10.64,-1.8c-1.6,-0.88 -2.8,-2 -3.68,-2c-1.4,0 -3.4,1.84 -5.52,4.12l-1.36,-1.8c2,-2 4.12,-3.56 5.88,-4l0,-12.96l-5.56,0l0,-1.84l7.4,0l0,14.72zm-0.88,-35.48a29.24,29.24 0 0 0 -5.76,-6.24l1.48,-1a30.74,30.74 0 0 1 5.88,6.08l-1.6,1.16zm24.15,36.4a121.1,121.1 0 0 0 -9.16,-8a33.21,33.21 0 0 1 -10.91,6.96a8.94,8.94 0 0 0 -1.2,-1.72a31,31 0 0 0 12.2,-7.64c-3.48,-2.72 -7.24,-5.52 -10.6,-7.84l1.36,-1.12c3.32,2.28 7,4.92 10.44,7.6a30.17,30.17 0 0 0 5.52,-10.64l-18.56,0l0,-1.8l25.8,0l0,1.8l-5.2,0a32.88,32.88 0 0 1 -6,11.8c3.72,2.92 7.16,5.76 9.48,8l-3.17,2.6zm-34.03,-59.8a33.76,33.76 0 0 0 -3.12,-5.84l1.8,-0.56a32,32 0 0 1 3.16,5.72l-1.84,0.68z" class="cls-11"/>
  <path id="svg_31" d="m209.23,153.42l0,2.08l-36.2,0l0,-2.12l36.2,0.04z" class="cls-11"/>
  <path id="svg_32" d="m223.07,156.58c-2.48,4 -5.68,8.76 -8.24,12.08l-1.72,-1.32a123.68,123.68 0 0 0 8.48,-12l1.48,1.24zm-3.2,-11.48a39.67,39.67 0 0 0 -7.56,-5.44l1.16,-1.36a36.93,36.93 0 0 1 7.6,5.2l-1.2,1.6zm14.92,4.32c0,0.84 0,1.76 -0.08,2.64c1.8,8.64 5.8,15.2 12.88,17.76a10,10 0 0 0 -1.28,1.64c-6.2,-2.48 -10,-7.8 -12.24,-15c-1.2,5.2 -4.56,10.88 -13.52,15.36a6.62,6.62 0 0 0 -1.36,-1.44c12.8,-6.32 13.64,-15 13.64,-21l0,-2.48l2,0l-0.04,2.52zm-7.08,-4.88a39.86,39.86 0 0 1 -4.12,8.48a20.22,20.22 0 0 0 -1.84,-1.08c2.92,-4 5.12,-10.16 6.36,-16.4l2,0.36a59.7,59.7 0 0 1 -1.8,6.76l16.2,0l0.4,-0.12l1.36,0.72a49.77,49.77 0 0 1 -4.16,10.4l-1.6,-0.84a44.52,44.52 0 0 0 3.36,-8.28l-16.16,0z" class="cls-11"/>
  <path id="svg_33" d="m275.07,145.18a51.08,51.08 0 0 1 -4.92,8.32l0,19.32l-1.88,0l0,-17a32.35,32.35 0 0 1 -5.28,4.92a12.92,12.92 0 0 0 -1.12,-1.6a37.15,37.15 0 0 0 11.08,-14l-10.28,0l0,-1.84l11.12,0a45.76,45.76 0 0 0 2.32,-6.56l2,0.52a57.6,57.6 0 0 1 -2.2,6l21.36,0l0,1.88l-22.2,0.04zm44.44,24.96l0,1.84l-46.44,0l0,-1.84l11.08,0l0,-12.6l-9.48,0l0,-1.84l9.48,0l0,-8.2l1.92,0l0,8.32l9.68,0l0,1.84l-9.68,0l0,12.6l33.44,-0.12z" class="cls-11"/>
  <path id="svg_34" d="m313.5,137.5l2,0l0,35.11l-2,0l0,-9.48c-3.88,1.68 -7.84,3.36 -10.92,4.6l-0.92,-1.84c3,-1.08 7.44,-2.88 11.84,-4.64l0,-12.07l-10.75,0l0,-1.92l10.75,0l0,-9.76zm20.64,42.23c2,0 2.36,-1.72 2.56,-8.48a5.4,5.4 0 0 0 1.92,1c-0.28,7.08 -0.88,9.4 -4.44,9.4l-6.92,0c-3.24,0 -4.24,-0.88 -4.24,-4.32l0,-39.83l2,0l0,14.08a67.8,67.8 0 0 0 10.92,-7.88l1.6,1.52a90.7,90.7 0 0 1 -12.52,8.36l0,14c0,2 0.4,2.4 2.32,2.4l6.8,9.75z" class="cls-11"/>
  <path id="svg_35" d="m353.87,172.22z" class="cls-11"/>
  <rect id="svg_36" height="66.56" width="431.82" y="202.5" x="39.68" class="cls-2"/>
  <path id="svg_37" d="m74.6,250.57c0,1.08 -0.24,1.6 -0.92,1.88s-2,0.36 -4.12,0.36a5.67,5.67 0 0 0 -0.6,-1.68c1.64,0 3,0 3.36,0s0.6,-0.12 0.6,-0.56l0,-7.07l-4.42,0l0,7.76l-1.54,0l0,-7.76l-4.67,0a23.41,23.41 0 0 1 -3,9.72a5.88,5.88 0 0 0 -1.48,-1c2.68,-4.24 3,-10.2 3,-14.72l0,-8.64c-0.52,0.68 -1,1.36 -1.52,2a9.37,9.37 0 0 0 -1.52,-1.12a31.19,31.19 0 0 0 6.44,-12.92l1.8,0.4c-0.28,1 -0.6,2.12 -1,3.12l6.24,0l0.32,-0.12l1.2,0.8a33.88,33.88 0 0 1 -2.76,5.84l4.59,0l0,23.71zm-10.15,-28.56a39.5,39.5 0 0 1 -2.36,4.88l6.11,0a32.26,32.26 0 0 0 2.24,-4.88l-5.99,0zm8.51,19.84l0,-6l-4.4,0l0,1.65c0,1.32 0,2.8 -0.16,4.32l4.56,0.03zm-4.4,-7.68l4.4,0l0,-5.67l-4.4,0l0,5.67zm6,0l4.4,0l0,-5.67l-10.46,0l6.06,5.67zm4.4,7.68l0,-6l-10.46,0l0,6l10.46,0zm11.64,-21.24c-0.84,4.76 -2.76,8.88 -7.4,11.16a5.55,5.55 0 0 0 -1.24,-1.32c4.32,-2 6.08,-5.76 6.84,-9.84l-12.12,0l0,-1.76l16.44,0a8.52,8.52 0 0 1 0,0.88c-0.4,6.8 -0.76,9.28 -1.56,10.16a2.37,2.37 0 0 1 -2,0.8a30.86,30.86 0 0 1 -4.16,-0.08a4.64,4.64 0 0 0 -0.52,-1.64c1.76,0.12 3.48,0.16 4.08,0.16s0.92,0 1.16,-0.36c0.52,-0.6 0.88,-2.68 1.2,-8.16l-0.72,0zm9.72,24.24l-7.52,0l0,8.2l-1.84,0l0,-8.2l-14.46,0l0,-1.76l8.44,0l0,-5.64l-4.78,0a21.32,21.32 0 0 1 -2.36,4.36a11.9,11.9 0 0 0 -1.6,-0.88a24.09,24.09 0 0 0 3.92,-9.2l1.76,0.32a27.81,27.81 0 0 1 -1,3.68l4.08,0l0,-4.23l1.84,0l0,4.2l6.44,0l0,1.72l-6.44,0l0,5.64l7.52,0l6,1.79z" class="cls-11"/>
  <path id="svg_38" d="m106.44,238.13c-1.92,4.2 -4.56,9.48 -6.72,13.16l-1.64,-1.2a131.19,131.19 0 0 0 7,-13.2l1.36,1.24zm-3.08,-12.24a41.53,41.53 0 0 0 -6.16,-7.72l1.52,-0.92a45.58,45.58 0 0 1 6.24,7.52l-1.6,1.12zm17.48,10.28c2,6.84 6,11.88 12.24,14a9.05,9.05 0 0 0 -1.32,1.68c-6.52,-2.6 -10.72,-8.08 -12.76,-15.68c-1,5.72 -4.16,11.56 -12.88,15.8a11.2,11.2 0 0 0 -1.28,-1.52c8.28,-3.8 11.24,-9.08 12.24,-14.28l-8.8,0l0,-1.84l10.44,0a46.46,46.46 0 0 0 0.28,-5.68l0,-4.64l-8.5,0l0,-1.84l8.48,0l0,-6.44l1.92,0l0,6.44l9,0l0,12.16l4.44,0l0,1.84l-13.5,0zm-1.28,-7.56a46.71,46.71 0 0 1 -0.28,5.72l7.48,0l0,-9.08l-7.2,0l0,3.36z" class="cls-11"/>
  <path id="svg_39" d="m173.92,250.05l0,1.72l-35.42,0l0,-1.72l16.6,0l0,-4.24l-13.6,0l0,-1.68l13.6,0l0,-3.36l-12.38,0l0,-12.2l12.36,0l0,-3l-16.4,0l0,-1.68l16.4,0l0,-3.56c-4.36,0.32 -8.88,0.52 -13,0.64a5,5 0 0 0 -0.4,-1.56c9.2,-0.32 20.76,-1 26.76,-2.24l1.24,1.48a109.32,109.32 0 0 1 -12.72,1.56l0,3.68l16.72,0l0,1.68l-16.68,0l0,3l12.88,0l0,12.2l-12.88,0l0,3.36l14.4,0l0,1.68l-14.4,0l0,4.24l16.92,0zm-46.28,-16.12l10.52,0l0,-3.76l6.4,0l-16.92,3.76zm10.52,5.28l0,-3.8l6.4,0l0,3.8l-6.4,0zm1.92,-9l0,3.76l11,0l0,-3.76l-11,0zm11,5.24l-11,0l0,3.8l11,0l0,-3.8z" class="cls-11"/>
  <path id="svg_40" d="m206,240.45a16.12,16.12 0 0 1 -6.36,7.24a104.73,104.73 0 0 1 13.2,4l-1.72,1.48a102.93,102.93 0 0 0 -13.76,-4.24c-4.44,2.2 -10.44,3.44 -17.92,4.08a6.5,6.5 0 0 0 -0.84,-1.76c6.56,-0.44 11.84,-1.36 15.92,-3c-3.32,-0.76 -6.92,-1.48 -10.52,-2.12a61.46,61.46 0 0 0 4.48,-5.68l-9.88,0l0,-1.8l11.12,0c1,-1.44 1.8,-2.92 2.52,-4.24l-11,0l0,-9.8l9,0l0,-4.11l-11.03,0l0,-1.76l34,0l0,1.76l-11.61,0l0,4.08l9.68,0l0,9.8l-18.68,0l1.56,0.4a40.1,40.1 0 0 1 -2.28,3.84l21.88,0l0,1.8l-7.76,0.03zm-15.12,-7.75l7.2,0l0,-6.44l-7.2,0l0,6.44zm7.56,7.72c-1.16,1.68 -2.36,3.24 -3.44,4.6c3.32,0.6 6.68,1.28 9.84,2a15.91,15.91 0 0 0 6.84,-6.64l-13.24,0.04zm1.48,-15.84l7.6,0l0,-4.08l-7.6,0l0,4.08zm7.6,8.12l0,-6.44l-7.6,0l0,6.44l7.6,0zm1.84,-6.44l0,6.44l7.8,0l0,-6.44l-7.8,0z" class="cls-11"/>
  <path id="svg_41" d="m236.96,221.25c-0.6,2.24 -1.24,4.76 -1.92,6.68l16.68,0l0,22.16c0,1.4 -0.32,2 -1.32,2.36a27.52,27.52 0 0 1 -6.08,0.36a7.66,7.66 0 0 0 -0.76,-1.92c2.64,0.08 4.76,0 5.4,0s0.84,-0.16 0.84,-0.8l0,-20.32l-8,0l0,22l-1.92,0l0,-22l-7.88,0l0,22l-1.88,0l0,-22l-7.52,0l0,23.36l-2,0l0,-25.2l12.4,0c0.56,-2 1.2,-4.6 1.6,-6.68l-16.1,0l0,-1.92l35.43,0l0,1.92l-16.97,0z" class="cls-11"/>
  <path id="svg_42" d="m265.64,246.05c0.88,0.48 1.76,1.44 3.4,2.56c2.64,1.76 6,2 10.72,2c5.28,0 11.08,-0.32 15,-0.68a6.94,6.94 0 0 0 -0.64,2.2c-2.76,0.16 -10.52,0.44 -14.4,0.44c-5.2,0 -8.56,-0.44 -11.36,-2.36c-1.6,-1.12 -2.92,-2.6 -3.76,-2.6c-1.4,0 -3.36,2.32 -5.6,5.36l-1.5,-1.68c2.28,-2.76 4.4,-4.84 6.2,-5.36l0,-13.48l-5.64,0l0,-1.95l7.56,0l0.02,15.55zm0.5,-36.11a57.23,57.23 0 0 0 -6.4,-6.76l1.4,-1a52.69,52.69 0 0 1 6.52,6.56l-1.52,1.2zm24.76,19.64l-19.2,0l0,-7.08l6.92,0a40.26,40.26 0 0 0 1.76,-5.72l2.08,0.36c-0.56,1.76 -1.24,3.8 -1.88,5.36l10.32,0l0,7.08zm-2,-20.84l-15.26,0l0,8.56l15.28,0l-0.02,-8.56zm0,10.32l-15.26,0l0,8.72l15.28,0l-0.02,-8.72z" class="cls-11"/>
  <path id="svg_43" d="m313.44,239.65a16.4,16.4 0 0 0 0.4,1.64c-9.56,4.32 -10.64,4.84 -11.36,5.48a7.11,7.11 0 0 0 -1,-1.76a2.78,2.78 0 0 0 1.52,-2.6l0,-12.16l-5.12,1.16l-0.36,-1.76l5.48,-1.2l0,-10l1.88,0l0,9.6l8.16,-1.84l0.36,1.72l-8.52,1.92l0,13.48l8.56,-3.68zm11.44,-14.08c-0.64,20.68 -1.16,27.36 -2.76,29.32a3.49,3.49 0 0 1 -2.76,1.4c-1.28,0 -3.48,0 -5.6,-0.12a4.31,4.31 0 0 0 -0.6,-2c2.48,0.2 4.76,0.2 5.6,0.2s1.2,-0.08 1.6,-0.64c1.32,-1.52 2,-8.4 2.56,-27.56l-0.92,0c-0.28,12.28 -1.12,24.4 -11.8,30.4a5.77,5.77 0 0 0 -1.52,-1.44c10.48,-5.56 11.2,-17.36 11.44,-29l-6.92,0l0,-1.84l20.24,0l-8.56,1.28z" class="cls-11"/>
  <path id="svg_44" d="m348.4,217.21c-0.68,2 -1.48,4.32 -2.16,6l7,0l0,25.6l-11.44,0l0,3.28l-1.8,0l0,-28.84l4.44,0a57.11,57.11 0 0 0 1.92,-6.52l2.04,0.48zm0.96,7.32l-7.56,0l0,9.56l9.56,0l-2,-9.56zm0,22l0,-10.2l-7.56,0l0,10.72l7.56,-0.52zm21.48,-22.68c-0.68,18.56 -1.24,24.64 -2.84,26.52a3.54,3.54 0 0 1 -2.8,1.24a49.59,49.59 0 0 1 -5.76,-0.12a4.57,4.57 0 0 0 -0.64,-1.88c2.64,0.2 5,0.24 5.88,0.24s1.28,-0.08 1.68,-0.6c1.32,-1.44 2,-7.64 2.6,-24.72l-11.2,0a38,38 0 0 1 -3.92,7.44a14.72,14.72 0 0 0 -1.64,-1c2.8,-3.64 4.88,-9.2 6.12,-14.88l1.88,0.44a53.26,53.26 0 0 1 -1.8,6.24l12.44,0l0,1.08zm-7.8,17.84a64,64 0 0 0 -6.48,-9.32l1.56,-0.88a69.81,69.81 0 0 1 6.52,9.16l-1.6,1.04z" class="cls-11"/>
  <path id="svg_45" d="m380.37,225.5l1.88,0l0,27.68l-1.88,0l0,-27.68zm1.92,19.76a83.78,83.78 0 0 1 6,6.32l-1.48,1c-1.32,-1.64 -3.88,-4.48 -5.92,-6.48l1.4,-0.84zm20.52,25.68l-11.61,0l0,2.8l-1.8,0l0,-17.2l13.4,0l0.01,14.4zm9.16,6.6c0,1.52 -0.4,2.16 -1.48,2.52s-3.12,0.4 -6.32,0.36a9.32,9.32 0 0 0 -0.64,-2c2.56,0.08 4.92,0 5.56,0s0.92,-0.24 0.92,-0.92l0,-56.41l-19.45,0l0,-1.8l21.4,0l0.01,58.25zm-20.76,-19.2l0,10.8l9.72,0l0,-10.8l-9.72,0z" class="cls-11"/>
  <path id="svg_46" d="m454.36,250.41a4.16,4.16 0 0 0 -0.8,1.76l-11.36,0c-9.12,0 -15.68,-1 -19.48,-6.88a17.31,17.31 0 0 1 -3.36,7.68a10.71,10.71 0 0 0 -1.48,-1c2.84,-3.12 3.72,-8 4,-13.92l1.72,0.12a46.1,46.1 0 0 1 -0.48,5a11.25,11.25 0 0 0 3.6,4.2l0,-11.6l-8.44,0l0,-1.64l18,0l0,1.64l-7.78,0l0,4.88l7.12,0l0,1.64l-7.12,0l0,6.12c3.56,1.72 8.24,2 13.76,2l12.1,0zm-32.38,-19.72l-1.02,0l0,-12.08l13.12,0l-12.1,12.08zm-1.84,-10.52l-9.48,0l0,3.72l9.48,0l0,-3.72zm0,5.24l-9.48,0l0,3.72l9.48,0l0,-3.72zm13.76,3.24c-0.32,11.52 -1.56,17.4 -10.4,20.48a5.4,5.4 0 0 0 -1,-1.32c8.44,-2.76 9.44,-8.24 9.72,-19.16l1.68,0zm-3.56,-3.76c0.44,-1.24 0.92,-3 1.28,-4.4l-7.48,0l0,-1.72l17.84,0l0,1.73l-8.36,0c-0.48,1.52 -1,3.2 -1.52,4.4l7.72,0l0,16.76l-1.8,0l0,-15.16l1.78,0l0,15.16l-1.76,0l0,-16.8l-7.7,0.03zm10.2,23.76a53.17,53.17 0 0 0 -7.32,-6.36l1.2,-1a50.65,50.65 0 0 1 7.4,6.16l-1.28,1.2z" class="cls-11"/>
 </g>
</svg>