<svg id="Layer_1" data-name="Layer 1" xmlns="http://www.w3.org/2000/svg" viewBox="0 0 600 400"><defs><style>.cls-1{fill:#f4f4f4;}.cls-2,.cls-5,.cls-7{fill:#fff;}.cls-3,.cls-6{fill:none;}.cls-3{stroke:#d3d3d3;stroke-miterlimit:10;stroke-width:8px;}.cls-4{fill:#b5b5b5;}.cls-4,.cls-7{stroke:#e2e2e2;stroke-width:4px;}.cls-4,.cls-6,.cls-7{stroke-linecap:round;stroke-linejoin:round;}.cls-5,.cls-8{fill-rule:evenodd;}.cls-6{stroke:#fff;stroke-width:0.71px;}.cls-8{fill:#e2e2e2;}</style></defs><title>thinking-cat</title><path class="cls-1" d="M269.56,141.47H226.22v33.11h41.07v11.64H226.22v45.45H212V129.6h57.55Z"/><path class="cls-1" d="M371.07,231.66H355.92l-7.11-22.25H306.34l-7.18,22.25H284.71L318.6,129.6h19.05ZM344.83,197l-17.26-54.58L310.32,197Z"/><path class="cls-1" d="M408.32,232.6a34,34,0,0,1-14.13-5.15,33,33,0,0,1-10-10.5,49.87,49.87,0,0,1-5.93-15.38,91.42,91.42,0,0,1-2-19.64q0-13.9,3.2-24.05a48.72,48.72,0,0,1,8.71-16.75,34.3,34.3,0,0,1,12.85-9.76,41.45,41.45,0,0,1,32.68.39A32.23,32.23,0,0,1,445.88,142a46.55,46.55,0,0,1,7.22,16.16,87.93,87.93,0,0,1,2.38,21.36,81.07,81.07,0,0,1-2.65,21.9,52.28,52.28,0,0,1-7.26,16,35.76,35.76,0,0,1-10.85,10.31,37.67,37.67,0,0,1-13.43,4.92,19.49,19.49,0,0,0,5.47,11q4.29,4.18,12.1,4.18a22.56,22.56,0,0,0,7.38-1.25,25.32,25.32,0,0,0,7.38-4.22l6.17,9.6a33.19,33.19,0,0,1-10.62,6,35.8,35.8,0,0,1-11.24,1.8,36.62,36.62,0,0,1-11.48-1.72,25.78,25.78,0,0,1-9.1-5.11,25,25,0,0,1-6.21-8.51A33.92,33.92,0,0,1,408.32,232.6ZM441,181.14a92,92,0,0,0-1.37-16.52,40.53,40.53,0,0,0-4.41-12.81,22.82,22.82,0,0,0-7.85-8.32,21.64,21.64,0,0,0-11.6-3,20,20,0,0,0-11.28,3.12,24.44,24.44,0,0,0-7.77,8.47,42.61,42.61,0,0,0-4.53,12.49,74.6,74.6,0,0,0-1.48,15.19,92.19,92.19,0,0,0,1.41,16.83,42.35,42.35,0,0,0,4.41,12.92,22.21,22.21,0,0,0,7.77,8.32,21.5,21.5,0,0,0,11.48,2.93,20.18,20.18,0,0,0,11.32-3.12,24.54,24.54,0,0,0,7.85-8.51,42.41,42.41,0,0,0,4.57-12.61A76.63,76.63,0,0,0,441,181.14Z"/><polygon class="cls-2" points="528 309 418 349 367.5 256 528 220.25 528 309"/><line class="cls-3" x1="-19" y1="342" x2="619" y2="200"/><path class="cls-4" d="M428.83,320.64,284.88,353c-6.51,1.46-14.59,1.67-18,.45l-54.14-19.53c-3.37-1.22-.81-3.41,5.7-4.87l143.95-32.38c6.51-1.46,14.59-1.67,18-.45l54.14,19.53C437.9,317,435.34,319.17,428.83,320.64Z"/><path class="cls-5" d="M214.82,135h0c2,1.38,3,3.66,4.15,5.92,6.78.45,10-2.61,10.65-8.3C222.76,135.9,216.55,127.23,214.82,135Zm-59.2-4.15h0c-4.91,1.81-9.54,3.89-13,7.12-7.15,16.34,40.75,23.53,32,5.92-3.38.56-6.32,3-10.06,3-4.53-.08-8.48-3-10.65-5.92,2.4-1.61,4.89,1.87,8.28,2.36a16.56,16.56,0,0,0,11.25-2.36v-4.15C166.74,140.65,157.12,137.43,155.62,130.85Zm-26.64.6h0c-1,4.82,3.79,8.77,10.65,7.7.94-2.62,2.85-4.26,4.15-6.52C140.63,127.63,134.94,134.36,129,131.45Zm77-18.35h0c-1.78-.25-2.37.73-3.56,1.19-2.95,1.1-10.93.8-14.8,4.14-3.59,3.1-4.26,11.5-3.56,14.2,1.07,4,7.61,5.58,11.27,4.14,4.51-1.77,5-7.17,8.28-11.24-.38,8.19,15.25,9.4,12.43-1.78-3.06-4.81-10.33-.49-13-2.36,1.91-1.85,3.18-4.33,7.7-3.56A6.38,6.38,0,0,0,205.95,113.11Zm-47.36,1.19h0c-2.32-4.47-12.1-1.72-10.67,2.36,3.95-.43,8,1.65,6.52,4.74-3-1.4-9.75-2.14-11.84.58-.77,6.31,1.22,9.84,7.69,8.88,2.11-1.43,2.84-4.26,4.74-5.91,2.57,1.32,1.73,4.8,3.56,7.1,1.93,2.48,6.5,4.52,9.47,4.15,3.25-.41,4.15-2.83,6.51-5.34Q175.23,113.93,158.59,114.29Zm67.48,0h0c8.48,3.25,6,15,5.33,23.68,9.86-5,7.68-27.12-5.91-26.64C225,113,226.31,112.86,226.07,114.29ZM127.2,136.78h0c-.43-4.42-2-9.34-1.78-13,.38-7,6-8.4,7.1-13.61C119.17,109.28,117,132.52,127.2,136.78Zm82.3-31.37h0a41.78,41.78,0,0,1-2.37,5.32c6,2.08,7,9.13,11.25,13-.74,3.7,1.89,4,2.37,6.53,8.88,3.54,11.71-6.74,6.5-12.45-2.93-2.91-10.19.88-12.43-1.77,1.86-1.91,4.74-2.76,8.3-3C222,107.09,217.41,104.6,209.5,105.41Zm-74.61,6.52h0c2,.62,8.88-.76,8.3,4.14-8.86-2.18-16.43.54-14.81,10.65,1.9,3.08,8,2.8,10.66.59.08-7.21,5.58-9,7.09-14.8,1.07-1.7,4-1.57,4.74-3.55-.39-2-1.85-2.91-2.37-4.75C140.63,103.43,136.26,106.18,134.89,111.92Zm52.7,4.14h0c.16-.84,1.3-.68,1.78-1.18-.54-2.95-2.8-3.44-3-6.53s1-7.33-1.78-8.88C182,104.37,182,114.47,187.59,116.07Zm-16-7.1h0c-.23,2.15-2.56,2.2-3,4.14,6.4,6.36,9-12,4.14-15.39C171.94,101.7,170.44,104.37,171.61,109Zm34.92-2.38h0c1.5-5.79-5.8-12.43-8.89-13-6.29-1.21-10.33,2-8.87,9.47,4.38-.52,8.3-.94,8.87,3.55-1.7.8-6.13-2.07-8.28.6C190.37,116.57,205.19,111.8,206.54,106.59Zm-55.06-3h0c.51,7.09,15.48,12,17.77,3-1.83-3.57-6.64-.17-8.89-1.18.38-5.06,6.29-3.42,8.89-3.56,2.22-4.54-1.38-8-3.55-10.06C158.57,91.35,151,97.49,151.48,103.63Zm64.53,42h0a24.09,24.09,0,0,0-.59-7.11c-3.79-2.52-8.28-4.34-12.43-6.51-2.36,6.34-11.78,10.68-18.36,5.93-.58,6.39,6,7.24,11.26,6.52,3.43-.48,6.16-4.1,8.28-2.38-3.16,6.94-13.65,6.27-20.71,3.55-2.28,2.42-.46,6.39,1.16,8.3C195.27,157.07,211.05,153.74,216,145.66Z"/><path class="cls-6" d="M214.82,135h0c2,1.38,3,3.66,4.15,5.92,6.78.45,10-2.61,10.65-8.3C222.76,135.9,216.55,127.23,214.82,135Zm-59.2-4.15h0c-4.91,1.81-9.54,3.89-13,7.12-7.15,16.34,40.75,23.53,32,5.92-3.38.56-6.32,3-10.06,3-4.53-.08-8.48-3-10.65-5.92,2.4-1.61,4.89,1.87,8.28,2.36a16.56,16.56,0,0,0,11.25-2.36v-4.15C166.74,140.65,157.12,137.43,155.62,130.85Zm-26.64.6h0c-1,4.82,3.79,8.77,10.65,7.7.94-2.62,2.85-4.26,4.15-6.52C140.63,127.63,134.94,134.36,129,131.45Zm77-18.35h0c-1.78-.25-2.37.73-3.56,1.19-2.95,1.1-10.93.8-14.8,4.14-3.59,3.1-4.26,11.5-3.56,14.2,1.07,4,7.61,5.58,11.27,4.14,4.51-1.77,5-7.17,8.28-11.24-.38,8.19,15.25,9.4,12.43-1.78-3.06-4.81-10.33-.49-13-2.36,1.91-1.85,3.18-4.33,7.7-3.56A6.38,6.38,0,0,0,205.95,113.11Zm-47.36,1.19h0c-2.32-4.47-12.1-1.72-10.67,2.36,3.95-.43,8,1.65,6.52,4.74-3-1.4-9.75-2.14-11.84.58-.77,6.31,1.22,9.84,7.69,8.88,2.11-1.43,2.84-4.26,4.74-5.91,2.57,1.32,1.73,4.8,3.56,7.1,1.93,2.48,6.5,4.52,9.47,4.15,3.25-.41,4.15-2.83,6.51-5.34Q175.23,113.93,158.59,114.29Zm67.48,0h0c8.48,3.25,6,15,5.33,23.68,9.86-5,7.68-27.12-5.91-26.64C225,113,226.31,112.86,226.07,114.29ZM127.2,136.78h0c-.43-4.42-2-9.34-1.78-13,.38-7,6-8.4,7.1-13.61C119.17,109.28,117,132.52,127.2,136.78Zm82.3-31.37h0a41.78,41.78,0,0,1-2.37,5.32c6,2.08,7,9.13,11.25,13-.74,3.7,1.89,4,2.37,6.53,8.88,3.54,11.71-6.74,6.5-12.45-2.93-2.91-10.19.88-12.43-1.77,1.86-1.91,4.74-2.76,8.3-3C222,107.09,217.41,104.6,209.5,105.41Zm-74.61,6.52h0c2,.62,8.88-.76,8.3,4.14-8.86-2.18-16.43.54-14.81,10.65,1.9,3.08,8,2.8,10.66.59.08-7.21,5.58-9,7.09-14.8,1.07-1.7,4-1.57,4.74-3.55-.39-2-1.85-2.91-2.37-4.75C140.63,103.43,136.26,106.18,134.89,111.92Zm52.7,4.14h0c.16-.84,1.3-.68,1.78-1.18-.54-2.95-2.8-3.44-3-6.53s1-7.33-1.78-8.88C182,104.37,182,114.47,187.59,116.07Zm-16-7.1h0c-.23,2.15-2.56,2.2-3,4.14,6.4,6.36,9-12,4.14-15.39C171.94,101.7,170.44,104.37,171.61,109Zm34.92-2.38h0c1.5-5.79-5.8-12.43-8.89-13-6.29-1.21-10.33,2-8.87,9.47,4.38-.52,8.3-.94,8.87,3.55-1.7.8-6.13-2.07-8.28.6C190.37,116.57,205.19,111.8,206.54,106.59Zm-55.06-3h0c.51,7.09,15.48,12,17.77,3-1.83-3.57-6.64-.17-8.89-1.18.38-5.06,6.29-3.42,8.89-3.56,2.22-4.54-1.38-8-3.55-10.06C158.57,91.35,151,97.49,151.48,103.63Zm64.53,42h0a24.09,24.09,0,0,0-.59-7.11c-3.79-2.52-8.28-4.34-12.43-6.51-2.36,6.34-11.78,10.68-18.36,5.93-.58,6.39,6,7.24,11.26,6.52,3.43-.48,6.16-4.1,8.28-2.38-3.16,6.94-13.65,6.27-20.71,3.55-2.28,2.42-.46,6.39,1.16,8.3C195.27,157.07,211.05,153.74,216,145.66Z"/><path class="cls-7" d="M95.22,61c12.58.54,31.45,17.89,45.6,28.41,13.09-4.83,33.21-10.1,50.91-7.1C201.4,84,210,86.77,216.6,90.59c7.44-5.44,14.26-12,22.51-17.16,7.47-4.71,16.2-11.5,27.82-10.07,3.25,8.18,1.75,17.21.59,25.46C265.39,104,261.73,119.57,258,135c-1.81,7.63-5.25,15-5.91,21.9-1,10.45,2.31,21.63,4.73,30.79s3.69,19.09,9.48,25.46c31.52,26.15,59.32,63.73,65.13,82.31,2.43,7.79,1.23,14-3.56,18.35-8,7.27-19.12,6-27.82-.6-5.57-4.25-13-12.74-18.94-19.53a189.61,189.61,0,0,0-14.21-14.21c-2.52-2.22-3.65-2.55-5.27-2.77-2.65-.38-7.93,1.83-11.85,2.95-10.39,3-23.09,5.26-35,6.92,4.53,5.89,14.22,14.12,20.13,21.3,3.4,4.15,9.33,10.31,8.29,17.78-.54,4-3.08,4.09-4.73,7.69-6.51,2.79-9.91,6.44-20.14,5.32a54,54,0,0,1-16.58-5.32C199.19,332,196,330,192.92,328c-73.74-46.68-76.83-91.59-85.26-167.55-2.34-21-11.25-47.41-14.81-70.47C91.37,80.3,88,64.25,95.22,61Z"/><path class="cls-8" d="M214.82,135h0c2,1.38,3,3.66,4.15,5.92,6.78.45,10-2.61,10.65-8.3-6.87,3.27-13.08-5.4-14.8,2.38m-59.2-4.15h0c-4.91,1.81-9.54,3.89-13,7.12-7.15,16.34,40.75,23.53,32,5.92-3.38.56-6.32,3-10.06,3-4.53-.08-8.48-3-10.65-5.92,2.4-1.61,4.89,1.87,8.28,2.36a16.56,16.56,0,0,0,11.25-2.36v-4.15C166.74,140.65,157.12,137.43,155.62,130.85Zm-26.64.6h0c-1,4.82,3.79,8.77,10.65,7.7.94-2.62,2.85-4.26,4.15-6.52C140.63,127.63,134.94,134.36,129,131.45Zm77-18.35h0c-1.78-.25-2.37.73-3.56,1.19-2.95,1.1-10.93.8-14.8,4.14-3.59,3.1-4.26,11.5-3.56,14.2,1.07,4,7.61,5.58,11.27,4.14,4.51-1.77,5-7.17,8.28-11.24-.38,8.19,15.25,9.4,12.43-1.78-3.06-4.81-10.33-.49-13-2.36,1.91-1.85,3.18-4.33,7.7-3.56A6.38,6.38,0,0,0,205.95,113.11Zm-47.36,1.19h0c-2.32-4.47-12.1-1.72-10.67,2.36,3.95-.43,8,1.65,6.52,4.74-3-1.4-9.75-2.14-11.84.58-.77,6.31,1.22,9.84,7.69,8.88,2.11-1.43,2.84-4.26,4.74-5.91,2.57,1.32,1.73,4.8,3.56,7.1,1.93,2.48,6.5,4.52,9.47,4.15,3.25-.41,4.15-2.83,6.51-5.34Q175.23,113.93,158.59,114.29Zm67.48,0h0c8.48,3.25,6,15,5.33,23.68,9.86-5,7.68-27.12-5.91-26.64C225,113,226.31,112.86,226.07,114.29ZM127.2,136.78h0c-.43-4.42-2-9.34-1.78-13,.38-7,6-8.4,7.1-13.61C119.17,109.28,117,132.52,127.2,136.78Zm82.3-31.37h0a41.78,41.78,0,0,1-2.37,5.32c6,2.08,7,9.13,11.25,13-.74,3.7,1.89,4,2.37,6.53,8.88,3.54,11.71-6.74,6.5-12.45-2.93-2.91-10.19.88-12.43-1.77,1.86-1.91,4.74-2.76,8.3-3C222,107.09,217.41,104.6,209.5,105.41Zm-74.61,6.52h0c2,.62,8.88-.76,8.3,4.14-8.86-2.18-16.43.54-14.81,10.65,1.9,3.08,8,2.8,10.66.59.08-7.21,5.58-9,7.09-14.8,1.07-1.7,4-1.57,4.74-3.55-.39-2-1.85-2.91-2.37-4.75C140.63,103.43,136.26,106.18,134.89,111.92Zm52.7,4.14h0c.16-.84,1.3-.68,1.78-1.18-.54-2.95-2.8-3.44-3-6.53s1-7.33-1.78-8.88C182,104.37,182,114.47,187.59,116.07Zm-16-7.1h0c-.23,2.15-2.56,2.2-3,4.14,6.4,6.36,9-12,4.14-15.39C171.94,101.7,170.44,104.37,171.61,109Zm34.92-2.38h0c1.5-5.79-5.8-12.43-8.89-13-6.29-1.21-10.33,2-8.87,9.47,4.38-.52,8.3-.94,8.87,3.55-1.7.8-6.13-2.07-8.28.6C190.37,116.57,205.19,111.8,206.54,106.59Zm-55.06-3h0c.51,7.09,15.48,12,17.77,3-1.83-3.57-6.64-.17-8.89-1.18.38-5.06,6.29-3.42,8.89-3.56,2.22-4.54-1.38-8-3.55-10.06C158.57,91.35,151,97.49,151.48,103.63Zm64.53,42h0a24.09,24.09,0,0,0-.59-7.11c-3.79-2.52-8.28-4.34-12.43-6.51-2.36,6.34-11.78,10.68-18.36,5.93-.58,6.39,6,7.24,11.26,6.52,3.43-.48,6.16-4.1,8.28-2.38-3.16,6.94-13.65,6.27-20.71,3.55-2.28,2.42-.46,6.39,1.16,8.3C195.27,157.07,211.05,153.74,216,145.66Z"/><path class="cls-7" d="M424.16,322.8,281.84,355.35c-6.43,1.47-11.88-2.82-12.1-9.54l-3.55-107.93c-.22-6.72,4.86-13.42,11.3-14.89l142.33-32.55c6.43-1.47,11.88,2.82,12.1,9.54l3.55,107.93C435.68,314.63,430.6,321.33,424.16,322.8Z"/></svg>