<?xml version="1.0" encoding="utf-8"?>
<!-- Generator: Adobe Illustrator 19.0.0, SVG Export Plug-In . SVG Version: 6.00 Build 0)  -->
<svg version="1.1" id="Layer_1" xmlns="http://www.w3.org/2000/svg" xmlns:xlink="http://www.w3.org/1999/xlink" x="0px" y="0px"
	 viewBox="0 0 550 600" style="enable-background:new 0 0 550 600;" xml:space="preserve">
<style type="text/css">
	.st0{fill:#FFFFFF;}
	.st1{fill:#E5692F;}
	.st2{clip-path:url(#SVGID_2_);}
	.st3{clip-path:url(#SVGID_4_);fill-rule:evenodd;clip-rule:evenodd;}
	.st4{clip-path:url(#SVGID_4_);fill-rule:evenodd;clip-rule:evenodd;fill:#FFFFFF;}
	
		.st5{clip-path:url(#SVGID_4_);fill:none;stroke:#FFFFFF;stroke-width:0.709;stroke-linecap:round;stroke-linejoin:round;stroke-miterlimit:22.926;}
	
		.st6{clip-path:url(#SVGID_4_);fill:none;stroke:#FFFFFF;stroke-width:1.417;stroke-linecap:round;stroke-linejoin:round;stroke-miterlimit:22.926;}
	.st7{clip-path:url(#SVGID_4_);fill-rule:evenodd;clip-rule:evenodd;fill:#E5692F;}
	
		.st8{clip-path:url(#SVGID_4_);fill:none;stroke:#91673B;stroke-width:0.709;stroke-linecap:round;stroke-linejoin:round;stroke-miterlimit:22.926;}
	.st9{clip-path:url(#SVGID_4_);fill-rule:evenodd;clip-rule:evenodd;fill:#F5CDBF;}
	.st10{fill:#E56A2F;}
	.st11{fill:url(#SVGID_5_);}
	.st12{fill:url(#SVGID_6_);}
</style>
<g>
	<rect x="31.3" y="164.5" class="st0" width="488.3" height="83"/>
	<g>
		<rect x="81.1" y="286" class="st0" width="388.1" height="66.6"/>
		<g>
			<path class="st1" d="M107.4,330.7c0.8,0.5,1.7,1.4,3.3,2.5c2.5,1.7,5.7,2,10.3,2c5.1,0,10.7-0.3,14.5-0.7
				c-0.2,0.5-0.5,1.5-0.6,2.1c-2.6,0.2-10.1,0.4-13.9,0.4c-5,0-8.2-0.4-10.9-2.3c-1.5-1.1-2.8-2.5-3.6-2.5c-1.3,0-3.1,2.3-5,5.2
				l-1.4-1.7c2.1-2.6,4-4.7,5.7-5.2v-13.1h-5.5v-1.8h7.2V330.7z M107.4,311c-1.1-1.9-3.5-4.9-5.6-7.1l1.4-0.8c2.1,2.1,4.5,5,5.7,6.8
				L107.4,311z M122.5,326.1h-12.1v-1.8h12.1V318h-6.4c-1.9,0-3,0.2-3.3,0.5c-0.1-0.4-0.4-1.3-0.7-1.8c0.6-0.1,1.3-1.2,2-2.6
				c0.5-0.8,1.6-3,2.7-5.7h-6.2v-1.7h6.9c0.5-1.3,1-2.7,1.4-4.1l1.9,0.5c-0.4,1.2-0.9,2.4-1.3,3.5h13.8v1.7h-14.5
				c-1.2,2.9-2.5,5.6-3.8,7.8h7.4v-5.3h1.9v5.3h8l0,1.8h-8v6.3h9.9v1.8h-9.9v8h-1.9V326.1z"/>
			<path class="st1" d="M145.3,323.2v11.9c0,1.2-0.3,1.7-1.1,2.1c-0.8,0.3-2,0.3-4.2,0.3c-0.1-0.5-0.3-1.2-0.6-1.7c1.6,0,3,0,3.5,0
				c0.5,0,0.6-0.2,0.6-0.7v-11.3l-4.8,1.7l-0.6-1.8c1.5-0.4,3.3-1,5.4-1.7v-9.5h-4.9v-1.7h4.9v-8h1.8v8h4.3v1.7h-4.3v8.9
				c1.2-0.4,2.5-0.9,3.8-1.3l0.3,1.8L145.3,323.2z M168.8,324.1c-0.8,3.1-2.2,5.7-4.4,7.7c3.2,1.4,6.2,3,8.2,4.4l-1.4,1.4
				c-2-1.5-5-3.1-8.4-4.6c-3,2.2-7.2,3.6-12.8,4.4c-0.2-0.5-0.5-1.2-0.9-1.7c5.1-0.6,8.9-1.8,11.7-3.5c-2.8-1.2-5.6-2.2-8.3-3
				c1.1-1.4,2.4-3.2,3.5-5.1h-6.3v-1.7h7.4c0.8-1.5,1.6-3,2.2-4.3l1.7,0.4c-0.5,1.2-1.3,2.6-2,3.9h14.7v1.7H168.8z M173.3,317.7
				h-23.1V316h13c1.3-1.7,2.9-4.5,3.7-6.4l1.9,0.5c-1.1,2-2.4,4.3-3.6,6h8.1V317.7z M172.2,308.7h-20.5V307h9.3
				c-0.6-1.2-1.4-2.7-2.2-3.8l1.7-0.3c0.9,1.3,1.9,2.9,2.5,4.2h9.3V308.7z M157.7,315.5c-0.5-1.4-1.9-3.7-3.1-5.3l1.4-0.6
				c1.3,1.6,2.6,3.7,3.2,5.1L157.7,315.5z M158,324.1c-0.9,1.5-1.9,3-2.8,4.3c2.4,0.7,4.9,1.6,7.3,2.6c2.1-1.8,3.4-4,4.3-6.9H158z"
				/>
			<path class="st1" d="M196.3,302.9c-0.2,0.3-0.4,0.7-0.7,1c4.8,5.9,10.7,10.3,17.1,13.9c-0.5,0.3-1.1,1-1.3,1.5
				c-6.2-3.8-11.8-8.1-16.8-14c-4.2,5.6-10.4,10.7-16.7,13.9c-0.3-0.5-0.8-1.1-1.3-1.4c7.1-3.4,14.2-9.4,18-15.6L196.3,302.9z
				 M195.6,334.6h15.5v1.7h-32.8v-1.7h15.4v-7.3h-10.6v-1.7h10.6v-6.9h-10.6v-1.7h23.4v1.7h-10.9v6.9h11.1v1.7h-11.1V334.6z"/>
			<path class="st1" d="M232,326.8v-12.6h-8.1v18.7h25.3v1.8H222v-20.5h-5.8v-1.8h5.8v-8.9h2v8.9h8.1v-9.8h1.8v9.8h8.6v-9.3h1.9v9.3
				h6.2v1.8h-6.2v12.6H232z M233.8,314.2V325h8.6v-10.8H233.8z"/>
			<path class="st1" d="M276.3,318.6c3,3.4,8.1,6.2,13,7.5c-0.4,0.4-1,1.1-1.3,1.6c-5.2-1.6-10.8-5-13.8-9.1h-4.5
				c-3.1,4-8.8,7.5-13.9,9.3c-0.3-0.5-0.8-1.2-1.3-1.5c4.7-1.4,9.9-4.4,13-7.7h-8.6v-14.8h25.8v14.8H276.3z M264.9,324.2h1.9v2.2
				c0,3.7-0.8,8.2-8.2,11.3c-0.3-0.5-0.8-1.1-1.3-1.4c6.9-2.9,7.6-6.9,7.6-9.9V324.2z M260.7,310.4h10.1v-4.9h-10.1V310.4z
				 M260.7,317h10.1v-5h-10.1V317z M282.7,305.5h-10.1v4.9h10.1V305.5z M282.7,312h-10.1v5h10.1V312z M277.4,324.2h1.9v13.3h-1.9
				V324.2z"/>
			<path class="st1" d="M302.8,302.9c-0.7,1.9-1.4,4.2-2.1,5.8h6.7v24.7h-11v3.2h-1.7v-27.8h4.3c0.7-1.8,1.5-4.5,1.9-6.3
				L302.8,302.9z M305.7,310.4h-9.2v9.2h9.2V310.4z M305.7,331.7v-10.3h-9.2v10.3H305.7z M326.4,309.8c-0.7,17.9-1.2,23.7-2.7,25.6
				c-0.7,0.8-1.5,1.1-2.7,1.2c-1.2,0.1-3.4,0-5.6-0.1c-0.1-0.6-0.3-1.3-0.6-1.8c2.5,0.2,4.8,0.2,5.7,0.2c0.8,0,1.2-0.1,1.6-0.6
				c1.3-1.4,1.9-7.4,2.5-23.8h-10.8c-1.1,2.7-2.4,5.2-3.8,7.2c-0.3-0.3-1.1-0.7-1.6-1c2.7-3.5,4.7-8.9,5.9-14.3l1.8,0.4
				c-0.5,2-1,4.1-1.7,6h12V309.8z M318.9,327c-1.2-2.4-3.9-6.2-6.2-9l1.5-0.8c2.3,2.8,5,6.5,6.3,8.8L318.9,327z"/>
			<path class="st1" d="M343.4,317.8c0.7-1.2,1.6-2.2,2.7-2.8c1.1-0.7,2.4-1,3.9-1c2.1,0,3.8,0.7,4.9,2c1.1,1.3,1.7,3.4,1.7,6.2
				v12.6h-2.3v-12.6c0-2.2-0.4-3.8-1.3-4.8s-2.1-1.4-3.6-1.4c-1.6,0-2.9,0.4-3.9,1.2s-1.8,1.8-2.2,3.1v14.5h-2.3v-29.4h2.3V317.8z"
				/>
			<path class="st1" d="M375.5,334.7c-0.1-0.7-0.2-1.3-0.3-1.8c-0.1-0.5-0.1-1-0.1-1.6c-0.7,1.1-1.7,2-3,2.7
				c-1.3,0.7-2.7,1.1-4.4,1.1c-2,0-3.5-0.5-4.6-1.6c-1.1-1.1-1.6-2.5-1.6-4.3s0.8-3.3,2.4-4.4c1.6-1.1,3.7-1.7,6.2-1.7h5v-2.5
				c0-1.5-0.5-2.6-1.4-3.4c-0.9-0.8-2.2-1.2-3.9-1.2c-1.5,0-2.8,0.4-3.7,1.1c-0.9,0.8-1.4,1.7-1.4,2.8h-2.1l0-0.1
				c-0.1-1.5,0.6-2.9,2-4c1.4-1.2,3.2-1.7,5.4-1.7s4,0.6,5.4,1.7c1.4,1.1,2,2.8,2,4.9v10c0,0.7,0,1.4,0.1,2.1c0.1,0.7,0.2,1.3,0.4,2
				H375.5z M368,333.1c1.7,0,3.2-0.4,4.5-1.2c1.3-0.8,2.1-1.9,2.6-3.2v-3.9h-5c-1.8,0-3.3,0.4-4.5,1.3c-1.2,0.9-1.8,1.9-1.8,3.2
				c0,1.2,0.4,2.1,1.1,2.8C365.6,332.7,366.6,333.1,368,333.1z"/>
			<path class="st1" d="M390.7,333.2c1.4,0,2.7-0.4,3.8-1.3s1.7-2,1.7-3.6h2l0,0.1c0,1.9-0.7,3.5-2.2,4.7c-1.5,1.3-3.3,1.9-5.3,1.9
				c-2.7,0-4.8-1-6.3-2.9c-1.5-1.9-2.3-4.3-2.3-7.3v-0.8c0-3,0.8-5.4,2.3-7.3s3.6-2.9,6.3-2.9c2.2,0,4,0.7,5.5,2
				c1.5,1.3,2.2,3,2.1,5.2l0,0.1h-2c0-1.6-0.5-2.9-1.6-3.9c-1.1-1-2.4-1.5-3.9-1.5c-2.1,0-3.7,0.8-4.8,2.4c-1,1.6-1.6,3.5-1.6,5.9
				v0.8c0,2.4,0.5,4.4,1.6,5.9C387,332.4,388.6,333.2,390.7,333.2z"/>
			<path class="st1" d="M407.8,324.8h-2.4v9.9h-2.3v-29.4h2.3v17.5h2.1l7.8-8.5h2.6l0,0.1l-8.4,9.2l9,10.9l-0.1,0.1h-2.6
				L407.8,324.8z"/>
			<path class="st1" d="M429.4,335.1c-2.6,0-4.8-0.9-6.4-2.8s-2.5-4.3-2.5-7.2v-1c0-2.9,0.8-5.4,2.5-7.3c1.7-1.9,3.7-2.9,6.2-2.9
				c2.5,0,4.4,0.8,5.7,2.4c1.3,1.6,2,3.7,2,6.4v1.8h-14.2v0.6c0,2.3,0.6,4.2,1.8,5.8s2.8,2.3,4.9,2.3c1.2,0,2.4-0.2,3.4-0.6
				c1-0.4,1.9-1,2.6-1.6l1,1.5c-0.7,0.8-1.7,1.4-2.8,1.9C432.4,334.8,431,335.1,429.4,335.1z M429.2,315.9c-1.7,0-3.2,0.6-4.3,1.9
				c-1.1,1.2-1.8,2.8-2,4.7l0.1,0.1h11.7v-0.5c0-1.8-0.5-3.3-1.4-4.5C432.3,316.4,431,315.9,429.2,315.9z"/>
			<path class="st1" d="M450.8,316.3l-1.6-0.1c-1.4,0-2.6,0.4-3.5,1.2c-0.9,0.8-1.6,1.9-1.9,3.3v14.1h-2.3v-20.4h2l0.3,3.4v0.2
				c0.6-1.3,1.4-2.2,2.4-2.9c1-0.7,2.2-1.1,3.5-1.1c0.3,0,0.5,0,0.8,0.1s0.5,0.1,0.6,0.1L450.8,316.3z"/>
		</g>
	</g>
	<g>
		<rect x="59.2" y="367" class="st0" width="431.8" height="66.6"/>
		<g>
			<path class="st1" d="M94.1,415.1c0,1.1-0.2,1.6-0.9,1.9c-0.8,0.4-2,0.4-4.1,0.4c-0.1-0.5-0.3-1.2-0.6-1.7c1.6,0,3,0,3.4,0
				c0.4,0,0.6-0.1,0.6-0.6V408H88v7.8h-1.6V408h-4.7c-0.4,3.4-1.2,7-3,9.7c-0.3-0.3-1.1-0.8-1.5-1c2.7-4.2,3-10.2,3-14.7v-8.6
				c-0.5,0.7-1,1.4-1.5,2c-0.3-0.3-1.1-0.9-1.5-1.1c2.9-3.2,5.2-7.9,6.4-12.9l1.8,0.4c-0.3,1-0.6,2.1-1,3.1h6.2l0.3-0.1l1.2,0.8
				c-0.7,1.9-1.7,4.1-2.8,5.8h4.5V415.1z M83.9,386.5c-0.7,1.7-1.5,3.4-2.4,4.9h6.1c0.8-1.4,1.6-3.2,2.2-4.9H83.9z M86.5,406.3v-6
				h-4.4v1.7c0,1.3,0,2.8-0.2,4.3H86.5z M82.1,398.7h4.4V393h-4.4V398.7z M88,398.7h4.4V393H88V398.7z M92.4,406.3v-6H88v6H92.4z
				 M104.1,385.1c-0.8,4.8-2.8,8.9-7.4,11.2c-0.3-0.4-0.8-1-1.2-1.3c4.3-2,6.1-5.8,6.8-9.8h-6.1v-1.8h16.4c0,0,0,0.6,0,0.9
				c-0.4,6.8-0.8,9.3-1.6,10.2c-0.5,0.6-1,0.8-2,0.8c-0.8,0.1-2.5,0-4.2-0.1c-0.1-0.5-0.2-1.2-0.5-1.6c1.8,0.1,3.5,0.2,4.1,0.2
				c0.6,0,0.9,0,1.2-0.4c0.5-0.6,0.9-2.7,1.2-8.2H104.1z M113.8,409.3h-7.5v8.2h-1.8v-8.2H96v-1.8h8.4v-5.6h-4.8
				c-0.7,1.6-1.5,3.2-2.4,4.4c-0.4-0.2-1.1-0.7-1.6-0.9c1.8-2.4,3.1-5.7,3.9-9.2l1.8,0.3c-0.3,1.3-0.6,2.5-1,3.7h4.1V396h1.8v4.2
				h6.4v1.7h-6.4v5.6h7.5V409.3z"/>
			<path class="st1" d="M125.9,402.6c-1.9,4.2-4.6,9.5-6.7,13.2l-1.6-1.2c2-3.2,4.9-8.6,7-13.2L125.9,402.6z M124.2,391.6
				c-1.2-2.1-3.8-5.4-6.2-7.7l1.5-0.9c2.3,2.2,5,5.4,6.2,7.5L124.2,391.6z M141.7,401.9c2,6.8,6,11.9,12.2,14
				c-0.4,0.4-1,1.1-1.3,1.7c-6.5-2.6-10.7-8.1-12.8-15.7c-1,5.7-4.2,11.6-12.9,15.8c-0.3-0.4-0.9-1.1-1.3-1.5
				c8.3-3.8,11.2-9.1,12.2-14.3h-10.2v-1.8h10.4c0.2-2,0.3-3.9,0.3-5.7v-4.6H130v-1.8h8.5v-6.4h1.9v6.4h9v12.2h4.4v1.8H141.7z
				 M140.4,394.4c0,1.8,0,3.8-0.3,5.7h7.5v-10.3h-7.2V394.4z"/>
			<path class="st1" d="M193.4,414.5v1.7H158v-1.7h16.6v-4.2H161v-1.7h13.6v-3.4h-12.4v-12.2h12.4v-3h-16.4v-1.7h16.4v-3.6
				c-4.4,0.3-8.9,0.5-13,0.6c0-0.5-0.2-1.2-0.4-1.6c9.2-0.3,20.8-1,26.8-2.2l1.2,1.5c-3.4,0.7-7.9,1.2-12.7,1.6v3.7h16.7v1.7h-16.7
				v3h12.9v12.2h-12.9v3.4h14.4v1.7h-14.4v4.2H193.4z M164.1,398.4h10.5v-3.8h-10.5V398.4z M174.6,403.7v-3.8h-10.5v3.8H174.6z
				 M176.5,394.7v3.8h11v-3.8H176.5z M187.5,399.9h-11v3.8h11V399.9z"/>
			<path class="st1" d="M225.5,404.9c-1.4,3-3.4,5.4-6.4,7.2c5.1,1.2,9.8,2.6,13.2,4l-1.7,1.5c-3.5-1.4-8.3-2.9-13.8-4.2
				c-4.4,2.2-10.4,3.4-17.9,4.1c-0.2-0.6-0.5-1.3-0.8-1.8c6.6-0.4,11.8-1.4,15.9-3c-3.3-0.8-6.9-1.5-10.5-2.1c1.4-1.6,3-3.6,4.5-5.7
				h-9.9v-1.8h11.1c1-1.4,1.8-2.9,2.5-4.2h-11v-9.8h9V385h-11.1v-1.8h34v1.8h-11.6v4.1h9.7v9.8h-18.7l1.6,0.4
				c-0.6,1.2-1.4,2.6-2.3,3.8h21.9v1.8H225.5z M202.6,397.2h7.2v-6.4h-7.2V397.2z M210.2,404.9c-1.2,1.7-2.4,3.2-3.4,4.6
				c3.3,0.6,6.7,1.3,9.8,2c3.1-1.6,5.4-3.8,6.8-6.6H210.2z M211.7,389.1h7.6V385h-7.6V389.1z M219.3,397.2v-6.4h-7.6v6.4H219.3z
				 M221.1,390.8v6.4h7.8v-6.4H221.1z"/>
			<path class="st1" d="M256.5,385.8c-0.6,2.2-1.2,4.8-1.9,6.7h16.7v22.2c0,1.4-0.3,2-1.3,2.4c-1.1,0.3-3.1,0.4-6.1,0.4
				c-0.1-0.6-0.4-1.4-0.8-1.9c2.6,0.1,4.8,0,5.4,0c0.7,0,0.8-0.2,0.8-0.8v-20.3h-8v22h-1.9v-22h-7.9v22h-1.9v-22h-7.5v23.4h-2v-25.2
				h12.4c0.6-2,1.2-4.6,1.6-6.7H238v-1.9h35.4v1.9H256.5z"/>
			<path class="st1" d="M285.1,410.5c0.9,0.5,1.8,1.4,3.4,2.6c2.6,1.8,6,2,10.7,2c5.3,0,11.1-0.3,15-0.7c-0.3,0.6-0.6,1.6-0.6,2.2
				c-2.8,0.2-10.5,0.4-14.4,0.4c-5.2,0-8.6-0.4-11.4-2.4c-1.6-1.1-2.9-2.6-3.8-2.6c-1.4,0-3.4,2.3-5.6,5.4l-1.5-1.7
				c2.3-2.8,4.4-4.8,6.2-5.4v-13.5h-5.6V395h7.6V410.5z M285.7,390c-1.4-1.8-4.1-4.7-6.4-6.8l1.4-1c2.3,2,5.1,4.8,6.5,6.6L285.7,390
				z M310.4,409.6h-19.2V387h6.9c0.7-1.8,1.4-4.1,1.8-5.7l2.1,0.4c-0.6,1.8-1.2,3.8-1.9,5.4h10.3V409.6z M308.4,388.8h-15.3v8.6
				h15.3V388.8z M308.4,399.1h-15.3v8.7h15.3V399.1z"/>
			<path class="st1" d="M332.9,404.1c0.1,0.5,0.3,1.2,0.4,1.6c-9.6,4.3-10.6,4.8-11.4,5.5c-0.2-0.5-0.6-1.3-1-1.8
				c0.6-0.3,1.5-1,1.5-2.6v-12.2l-5.1,1.2l-0.4-1.8l5.5-1.2v-10h1.9v9.6l8.2-1.8l0.4,1.7l-8.5,1.9v13.5L332.9,404.1z M352.9,386.4
				c-0.6,20.7-1.2,27.4-2.8,29.3c-0.7,1-1.6,1.3-2.8,1.4c-1.3,0-3.5,0-5.6-0.1c0-0.6-0.2-1.4-0.6-2c2.5,0.2,4.8,0.2,5.6,0.2
				c0.8,0,1.2-0.1,1.6-0.6c1.3-1.5,2-8.4,2.6-27.6h-9.5c-0.3,12.3-1.1,24.4-11.8,30.4c-0.4-0.5-1-1.2-1.5-1.4
				c10.5-5.6,11.2-17.4,11.4-29h-6.9v-1.8h20.2V386.4z"/>
			<path class="st1" d="M367.9,381.7c-0.7,2-1.5,4.3-2.2,6h7v25.6h-11.4v3.3h-1.8v-28.9h4.4c0.7-1.9,1.5-4.6,1.9-6.5L367.9,381.7z
				 M370.9,389.5h-9.6v9.6h9.6V389.5z M370.9,411.5v-10.7h-9.6v10.7H370.9z M392.3,388.9c-0.7,18.6-1.2,24.6-2.8,26.5
				c-0.8,0.9-1.6,1.2-2.8,1.2c-1.2,0.1-3.6,0-5.8-0.1c-0.1-0.6-0.3-1.4-0.6-1.9c2.6,0.2,5,0.2,5.9,0.2c0.8,0,1.3-0.1,1.7-0.6
				c1.3-1.4,2-7.6,2.6-24.7h-11.2c-1.2,2.8-2.5,5.4-3.9,7.4c-0.3-0.3-1.2-0.8-1.6-1c2.8-3.6,4.9-9.2,6.1-14.9l1.9,0.4
				c-0.5,2.1-1.1,4.2-1.8,6.2h12.4V388.9z M384.5,406.7c-1.3-2.4-4.1-6.4-6.5-9.3l1.6-0.9c2.4,2.9,5.2,6.8,6.5,9.2L384.5,406.7z"/>
			<path class="st1" d="M399.9,390h1.9v27.7h-1.9V390z M401.8,382.1c2,2,4.7,4.7,6,6.3l-1.5,1c-1.3-1.6-3.9-4.5-5.9-6.5L401.8,382.1
				z M422.3,407.7h-11.6v2.8h-1.8v-17.2h13.4V407.7z M431.5,414.3c0,1.5-0.4,2.2-1.5,2.5c-1.1,0.4-3.1,0.4-6.3,0.4
				c-0.1-0.6-0.4-1.4-0.6-2c2.6,0.1,4.9,0,5.6,0c0.7,0,0.9-0.2,0.9-0.9v-28.8h-19.4v-1.8h21.4V414.3z M410.7,395.1v10.8h9.7v-10.8
				H410.7z"/>
			<path class="st1" d="M473.9,414.9c-0.4,0.4-0.7,1.2-0.8,1.8h-11.4c-9.1,0-15.7-1-19.5-6.9c-0.6,3.1-1.7,5.6-3.4,7.7
				c-0.3-0.3-1-0.8-1.5-1c2.8-3.1,3.7-8,4-13.9l1.7,0.1c-0.1,1.8-0.2,3.5-0.5,5c0.9,1.8,2.1,3.2,3.6,4.2v-11.6h-8.4v-1.6h18v1.6H448
				v4.9h7.1v1.6H448v6.1c3.6,1.7,8.2,2,13.8,2H473.9z M453.6,395.2h-13.1v-12.1h13.1V395.2z M451.7,384.7h-9.5v3.7h9.5V384.7z
				 M451.7,389.9h-9.5v3.7h9.5V389.9z M465.5,393.1c-0.3,11.5-1.6,17.4-10.4,20.5c-0.2-0.4-0.7-1-1-1.3c8.4-2.8,9.4-8.2,9.7-19.2
				H465.5z M461.9,389.4c0.4-1.2,0.9-3,1.3-4.4h-7.5v-1.7h17.8v1.7h-8.4c-0.5,1.5-1,3.2-1.5,4.4h7.7v16.8h-1.8V391h-10.3v15.2h-1.8
				v-16.8H461.9z M472.1,413.1c-1.6-1.7-4.7-4.5-7.3-6.4l1.2-1c2.6,1.8,5.8,4.4,7.4,6.2L472.1,413.1z"/>
		</g>
	</g>
	<g>
		<g>
			<g>
				<defs>
					<rect id="SVGID_1_" x="75.8" y="178.5" width="330.3" height="55"/>
				</defs>
				<clipPath id="SVGID_2_">
					<use xlink:href="#SVGID_1_"  style="overflow:visible;"/>
				</clipPath>
				<g class="st2">
					<defs>
						<rect id="SVGID_3_" x="75.8" y="178.5" width="330.3" height="55"/>
					</defs>
					<clipPath id="SVGID_4_">
						<use xlink:href="#SVGID_3_"  style="overflow:visible;"/>
					</clipPath>
					<path class="st3" d="M150.6,219.1c1.5,0.3,6.6,0.2,8.2,0c3-0.3,4.7-0.4,7.1-1.6c8-4.3,7.8-18.1-0.1-22.5
						c-3-1.7-10.9-2.8-15.1-2L150.6,219.1z M147.2,222.6c5.4,0.6,16.7,0.3,20.5-1.8c10.2-5.6,10.7-22.9-0.3-29.1
						c-4-2.3-14.5-2.8-20.2-2.1L147.2,222.6z"/>
					<path class="st3" d="M307.6,201c-12.7,2.8-8.3,21.3,3.6,18.9C323.8,217.4,319.8,198.4,307.6,201 M318.8,219.1l0.1,3.7
						c4.7,0.2,3.4,0.6,3.4-12.2c0-3.6,0.3-9-0.1-12.4L319,198l-0.2,3.8c-1.2-0.4-2.1-2.6-5.8-3.8c-7.4-2.4-16.6,3.1-16.6,12.3
						c0,10.7,11.6,16.3,19.6,10.9C316.7,220.7,318.1,219.3,318.8,219.1"/>
					<path class="st3" d="M240.5,201.1c-13.2,3.6-7,22.2,4.6,18.7C257.8,215.9,251.8,198,240.5,201.1 M252.1,219.1l0,3.4l3.3,0
						l0-24.4l-3.4,0l0,3.5c-1.8-0.5-1.8-2.5-6-3.7c-2.6-0.8-6.4-0.6-8.7,0.5c-11,5.1-9.6,20.1,0.4,23.9c2.6,1,5.6,1.1,8.4,0.3
						c1.2-0.3,2.3-0.8,3.3-1.5C250.2,220.6,251.2,219.2,252.1,219.1"/>
					<path class="st3" d="M264.5,191.5l0,31l3.5,0.1c0.4-17.1-2.2-15.8,4.1-15.8c2.6,0,11.3-0.2,12.7,0.1l0.1,15.8
						c4.4,0.1,3.5,1.2,3.5-8.1c0-6.1,0.3-20.7-0.1-24.9l-3.5-0.1l-0.1,13.7c-1.8,0.2-15.3,0.3-16.7-0.1l0-13.6
						C263.7,189.4,264.5,189.4,264.5,191.5"/>
					<path class="st3" d="M365.8,222.5c0.7-0.7,0.3-8.7,0.3-10.1c1.5,0.4,2.8,2,3.9,3c1.3,1.1,2.5,2.2,3.6,3.1
						c5.4,4.8,3.6,4.2,9,4.2c-0.3-2-12.5-10.4-13.7-12.9c1.9-2.4,12.9-10.4,13-11.7c-5.1-0.3-4.6,0-8.6,3.5
						c-1.3,1.1-5.9,5.3-7.1,5.8v-18.7l-3.6-0.1l-0.1,33.3C362.7,223.3,365.3,223,365.8,222.5"/>
					<path class="st3" d="M354.9,217.6c-0.5-0.7-1.8-1.5-2.6-1.7c-1.3,1.2-2.3,2.5-4.6,3.5c-5.6,2.3-14.1-0.9-14.3-8.8
						c-0.2-10.7,13.9-13.1,18.8-5.8c1.1-0.2,2-0.7,2.7-1.5c-0.8-4.2-9.5-6.9-15.6-5.2c-12.3,3.5-12.8,20.7-0.2,24.6
						C344.8,224.4,353.4,221.8,354.9,217.6"/>
					<path class="st3" d="M387.4,217.5c-0.8,0.5-1.3,1.1-1.8,2.1c1.2,3.2,7.5,4.6,11,2.7c3.2-1.7,5.3-6.6,2.4-10.4
						c-2.3-2.9-7.5-4.1-8.9-6.6c-1.7-3,1.9-6.2,5.8-4.1c1.1,0.6,1.3,1.3,2.5,1.5c0.8-0.5,1.6-1.3,1.9-2.1c-0.8-1.5-6.7-5.1-11-2.1
						c-3.7,2.6-3.7,7.5-0.4,10.4c2.6,2.3,8.2,3.5,8.1,7.1c-0.1,2.3-2.1,3.6-4,3.7C389.9,220.1,389.2,218.1,387.4,217.5"/>
					<path class="st3" d="M193.3,219.9l0-5l3.2,0.1l0,4.9c3.2,0,6.2-3,7.2-6c1.8-5.2,0.1-3.8-9.2-3.8c-2.2,0-7.9-0.3-9.6,0.1
						C184.5,215.4,189.9,220.6,193.3,219.9"/>
					<path class="st3" d="M217.3,200.8c-0.1-3.3,0.4-2.9-3.3-2.8c-0.6,2.5-0.3,20.6-0.2,24.5l3.4,0c0.1-5.6-1-16.1,2.2-19.9
						c1.5-1.8,2.7-1.9,5.2-1.5c0.7-0.6,1.5-1.6,1.6-2.8C221.1,195.7,218.7,200.3,217.3,200.8"/>
					<path class="st3" d="M185.9,206.9l17.6,0c0-3.6-8.3-9.3-14.5-4.4C188.1,203.2,185.8,205.1,185.9,206.9"/>
					<path class="st4" d="M101.5,193.1L101.5,193.1c0.4,0.3,0.6,0.7,0.8,1.2c1.3,0.1,2-0.5,2.1-1.6
						C103.1,193.3,101.9,191.5,101.5,193.1 M89.8,192.3L89.8,192.3c-1,0.4-1.9,0.8-2.6,1.4c-1.4,3.2,8,4.6,6.3,1.2
						c-0.7,0.1-1.2,0.6-2,0.6c-0.9,0-1.7-0.6-2.1-1.2c0.5-0.3,1,0.4,1.6,0.5c0.8,0.1,1.6-0.1,2.2-0.5v-0.8
						C92,194.2,90.1,193.6,89.8,192.3 M84.6,192.4L84.6,192.4c-0.2,1,0.7,1.7,2.1,1.5c0.2-0.5,0.6-0.8,0.8-1.3
						C86.9,191.6,85.7,192.9,84.6,192.4 M99.8,188.7L99.8,188.7c-0.4,0-0.5,0.1-0.7,0.2c-0.6,0.2-2.2,0.2-2.9,0.8
						c-0.7,0.6-0.8,2.3-0.7,2.8c0.2,0.8,1.5,1.1,2.2,0.8c0.9-0.3,1-1.4,1.6-2.2c-0.1,1.6,3,1.9,2.5-0.4c-0.6-1-2-0.1-2.6-0.5
						c0.4-0.4,0.6-0.9,1.5-0.7C100.6,189.2,100.1,188.8,99.8,188.7 M90.4,189L90.4,189c-0.5-0.9-2.4-0.3-2.1,0.5
						c0.8-0.1,1.6,0.3,1.3,0.9c-0.6-0.3-1.9-0.4-2.3,0.1c-0.2,1.2,0.2,1.9,1.5,1.8c0.4-0.3,0.6-0.8,0.9-1.2c0.5,0.3,0.3,0.9,0.7,1.4
						c0.4,0.5,1.3,0.9,1.9,0.8c0.6-0.1,0.8-0.6,1.3-1.1C93.7,190,92.6,188.9,90.4,189 M103.7,189L103.7,189c1.7,0.6,1.2,3,1.1,4.7
						c1.9-1,1.5-5.4-1.2-5.3C103.5,188.7,103.8,188.7,103.7,189 M84.2,193.4L84.2,193.4c-0.1-0.9-0.4-1.8-0.4-2.6
						c0.1-1.4,1.2-1.7,1.4-2.7C82.6,188,82.2,192.6,84.2,193.4 M100.5,187.2L100.5,187.2c-0.1,0.4-0.3,0.7-0.5,1.1
						c1.2,0.4,1.4,1.8,2.2,2.6c-0.1,0.7,0.4,0.8,0.5,1.3c1.8,0.7,2.3-1.3,1.3-2.5c-0.6-0.6-2,0.2-2.5-0.3c0.4-0.4,0.9-0.5,1.6-0.6
						C102.9,187.6,102,187.1,100.5,187.2 M85.7,188.5L85.7,188.5c0.4,0.1,1.8-0.2,1.6,0.8c-1.8-0.4-3.2,0.1-2.9,2.1
						c0.4,0.6,1.6,0.6,2.1,0.1c0-1.4,1.1-1.8,1.4-2.9c0.2-0.3,0.8-0.3,0.9-0.7c-0.1-0.4-0.4-0.6-0.5-0.9
						C86.9,186.8,86,187.4,85.7,188.5 M96.1,189.3L96.1,189.3c0-0.2,0.3-0.1,0.4-0.2c-0.1-0.6-0.6-0.7-0.6-1.3
						c0-0.6,0.2-1.4-0.4-1.8C95,187,95,189,96.1,189.3 M93,187.9L93,187.9c0,0.4-0.5,0.4-0.6,0.8c1.3,1.3,1.8-2.4,0.8-3
						C93.1,186.5,92.8,187,93,187.9 M99.9,187.5L99.9,187.5c0.3-1.1-1.1-2.5-1.8-2.6c-1.2-0.2-2,0.4-1.8,1.9
						c0.9-0.1,1.6-0.2,1.8,0.7c-0.3,0.2-1.2-0.4-1.6,0.1C96.7,189.4,99.6,188.5,99.9,187.5 M89,186.9L89,186.9
						c0.1,1.4,3.1,2.4,3.5,0.6c-0.4-0.7-1.3,0-1.8-0.2c0.1-1,1.2-0.7,1.8-0.7c0.4-0.9-0.3-1.6-0.7-2C90.4,184.5,88.9,185.7,89,186.9
						 M101.8,195.2L101.8,195.2c0-0.6,0-1-0.1-1.4c-0.7-0.5-1.6-0.9-2.5-1.3c-0.5,1.3-2.3,2.1-3.6,1.2c-0.1,1.3,1.2,1.4,2.2,1.3
						c0.7-0.1,1.2-0.8,1.6-0.5c-0.6,1.4-2.7,1.2-4.1,0.7c-0.4,0.5-0.1,1.3,0.2,1.6C97.7,197.4,100.8,196.8,101.8,195.2"/>
					<path class="st5" d="M101.5,193.1L101.5,193.1c0.4,0.3,0.6,0.7,0.8,1.2c1.3,0.1,2-0.5,2.1-1.6
						C103.1,193.3,101.9,191.5,101.5,193.1z M89.8,192.3L89.8,192.3c-1,0.4-1.9,0.8-2.6,1.4c-1.4,3.2,8,4.6,6.3,1.2
						c-0.7,0.1-1.2,0.6-2,0.6c-0.9,0-1.7-0.6-2.1-1.2c0.5-0.3,1,0.4,1.6,0.5c0.8,0.1,1.6-0.1,2.2-0.5v-0.8
						C92,194.2,90.1,193.6,89.8,192.3z M84.6,192.4L84.6,192.4c-0.2,1,0.7,1.7,2.1,1.5c0.2-0.5,0.6-0.8,0.8-1.3
						C86.9,191.6,85.7,192.9,84.6,192.4z M99.8,188.7L99.8,188.7c-0.4,0-0.5,0.1-0.7,0.2c-0.6,0.2-2.2,0.2-2.9,0.8
						c-0.7,0.6-0.8,2.3-0.7,2.8c0.2,0.8,1.5,1.1,2.2,0.8c0.9-0.3,1-1.4,1.6-2.2c-0.1,1.6,3,1.9,2.5-0.4c-0.6-1-2-0.1-2.6-0.5
						c0.4-0.4,0.6-0.9,1.5-0.7C100.6,189.2,100.1,188.8,99.8,188.7z M90.4,189L90.4,189c-0.5-0.9-2.4-0.3-2.1,0.5
						c0.8-0.1,1.6,0.3,1.3,0.9c-0.6-0.3-1.9-0.4-2.3,0.1c-0.2,1.2,0.2,1.9,1.5,1.8c0.4-0.3,0.6-0.8,0.9-1.2c0.5,0.3,0.3,0.9,0.7,1.4
						c0.4,0.5,1.3,0.9,1.9,0.8c0.6-0.1,0.8-0.6,1.3-1.1C93.7,190,92.6,188.9,90.4,189z M103.7,189L103.7,189c1.7,0.6,1.2,3,1.1,4.7
						c1.9-1,1.5-5.4-1.2-5.3C103.5,188.7,103.8,188.7,103.7,189z M84.2,193.4L84.2,193.4c-0.1-0.9-0.4-1.8-0.4-2.6
						c0.1-1.4,1.2-1.7,1.4-2.7C82.6,188,82.2,192.6,84.2,193.4z M100.5,187.2L100.5,187.2c-0.1,0.4-0.3,0.7-0.5,1.1
						c1.2,0.4,1.4,1.8,2.2,2.6c-0.1,0.7,0.4,0.8,0.5,1.3c1.8,0.7,2.3-1.3,1.3-2.5c-0.6-0.6-2,0.2-2.5-0.3c0.4-0.4,0.9-0.5,1.6-0.6
						C102.9,187.6,102,187.1,100.5,187.2z M85.7,188.5L85.7,188.5c0.4,0.1,1.8-0.2,1.6,0.8c-1.8-0.4-3.2,0.1-2.9,2.1
						c0.4,0.6,1.6,0.6,2.1,0.1c0-1.4,1.1-1.8,1.4-2.9c0.2-0.3,0.8-0.3,0.9-0.7c-0.1-0.4-0.4-0.6-0.5-0.9
						C86.9,186.8,86,187.4,85.7,188.5z M96.1,189.3L96.1,189.3c0-0.2,0.3-0.1,0.4-0.2c-0.1-0.6-0.6-0.7-0.6-1.3
						c0-0.6,0.2-1.4-0.4-1.8C95,187,95,189,96.1,189.3z M93,187.9L93,187.9c0,0.4-0.5,0.4-0.6,0.8c1.3,1.3,1.8-2.4,0.8-3
						C93.1,186.5,92.8,187,93,187.9z M99.9,187.5L99.9,187.5c0.3-1.1-1.1-2.5-1.8-2.6c-1.2-0.2-2,0.4-1.8,1.9
						c0.9-0.1,1.6-0.2,1.8,0.7c-0.3,0.2-1.2-0.4-1.6,0.1C96.7,189.4,99.6,188.5,99.9,187.5z M89,186.9L89,186.9
						c0.1,1.4,3.1,2.4,3.5,0.6c-0.4-0.7-1.3,0-1.8-0.2c0.1-1,1.2-0.7,1.8-0.7c0.4-0.9-0.3-1.6-0.7-2C90.4,184.5,88.9,185.7,89,186.9
						z M101.8,195.2L101.8,195.2c0-0.6,0-1-0.1-1.4c-0.7-0.5-1.6-0.9-2.5-1.3c-0.5,1.3-2.3,2.1-3.6,1.2c-0.1,1.3,1.2,1.4,2.2,1.3
						c0.7-0.1,1.2-0.8,1.6-0.5c-0.6,1.4-2.7,1.2-4.1,0.7c-0.4,0.5-0.1,1.3,0.2,1.6C97.7,197.4,100.8,196.8,101.8,195.2z"/>
					<path class="st6" d="M99,207c13.3-1.9,24.5,0.2,25,4.6c0.5,4.4-9.9,9.4-23.2,11.3c-13.3,1.9-24.5-0.2-25-4.6
						C75.4,213.9,85.7,208.8,99,207z"/>
					<path class="st7" d="M99,207c13.3-1.9,24.5,0.2,25,4.6c0.5,4.4-9.9,9.4-23.2,11.3c-13.3,1.9-24.5-0.2-25-4.6
						C75.4,213.9,85.7,208.8,99,207"/>
					<path class="st6" d="M77.9,178.5c2.5,0.1,6.2,3.5,9,5.6c2.6-1,6.6-2,10.1-1.4c1.9,0.3,3.6,0.9,4.9,1.6c1.5-1.1,2.8-2.4,4.4-3.4
						c1.5-0.9,3.2-2.3,5.5-2c0.6,1.6,0.3,3.4,0.1,5c-0.4,3-1.1,6.1-1.9,9.1c-0.4,1.5-1,3-1.2,4.3c-0.2,2.1,0.5,4.3,0.9,6.1
						c0.5,1.8,0.7,3.8,1.9,5c6.2,5.2,11.7,12.6,12.9,16.3c0.5,1.5,0.2,2.8-0.7,3.6c-1.6,1.4-3.8,1.2-5.5-0.1
						c-1.1-0.8-2.6-2.5-3.7-3.9c-0.6-0.7-1.9-2-2.8-2.8c-0.5-0.4-0.7-0.5-1-0.5c-0.5-0.1-1.6,0.4-2.3,0.6c-2.1,0.6-4.6,1-6.9,1.4
						c0.9,1.2,2.8,2.8,4,4.2c0.7,0.8,1.8,2,1.6,3.5c-0.1,0.8-0.6,0.8-0.9,1.5c-1.3,0.6-2,1.3-4,1.1c-1-0.1-2.3-0.6-3.3-1.1
						c-0.5-0.3-1.1-0.7-1.8-1.1C82.6,222,82,213.1,80.4,198.1c-0.5-4.2-2.2-9.4-2.9-13.9C77.1,182.3,76.5,179.1,77.9,178.5z"/>
					<path class="st3" d="M77.9,178.5c2.5,0.1,6.2,3.5,9,5.6c2.6-1,6.6-2,10.1-1.4c1.9,0.3,3.6,0.9,4.9,1.6c1.5-1.1,2.8-2.4,4.4-3.4
						c1.5-0.9,3.2-2.3,5.5-2c0.6,1.6,0.3,3.4,0.1,5c-0.4,3-1.1,6.1-1.9,9.1c-0.4,1.5-1,3-1.2,4.3c-0.2,2.1,0.5,4.3,0.9,6.1
						c0.5,1.8,0.7,3.8,1.9,5c6.2,5.2,11.7,12.6,12.9,16.3c0.5,1.5,0.2,2.8-0.7,3.6c-1.6,1.4-3.8,1.2-5.5-0.1
						c-1.1-0.8-2.6-2.5-3.7-3.9c-0.6-0.7-1.9-2-2.8-2.8c-0.5-0.4-0.7-0.5-1-0.5c-0.5-0.1-1.6,0.4-2.3,0.6c-2.1,0.6-4.6,1-6.9,1.4
						c0.9,1.2,2.8,2.8,4,4.2c0.7,0.8,1.8,2,1.6,3.5c-0.1,0.8-0.6,0.8-0.9,1.5c-1.3,0.6-2,1.3-4,1.1c-1-0.1-2.3-0.6-3.3-1.1
						c-0.5-0.3-1.1-0.7-1.8-1.1C82.6,222,82,213.1,80.4,198.1c-0.5-4.2-2.2-9.4-2.9-13.9C77.1,182.3,76.5,179.1,77.9,178.5"/>
					<path class="st8" d="M101.5,193.1L101.5,193.1c0.4,0.3,0.6,0.7,0.8,1.2c1.3,0.1,2-0.5,2.1-1.6
						C103.1,193.3,101.9,191.5,101.5,193.1z M89.8,192.3L89.8,192.3c-1,0.4-1.9,0.8-2.6,1.4c-1.4,3.2,8,4.6,6.3,1.2
						c-0.7,0.1-1.2,0.6-2,0.6c-0.9,0-1.7-0.6-2.1-1.2c0.5-0.3,1,0.4,1.6,0.5c0.8,0.1,1.6-0.1,2.2-0.5v-0.8
						C92,194.2,90.1,193.6,89.8,192.3z M84.6,192.4L84.6,192.4c-0.2,1,0.7,1.7,2.1,1.5c0.2-0.5,0.6-0.8,0.8-1.3
						C86.9,191.6,85.7,192.9,84.6,192.4z M99.8,188.7L99.8,188.7c-0.4,0-0.5,0.1-0.7,0.2c-0.6,0.2-2.2,0.2-2.9,0.8
						c-0.7,0.6-0.8,2.3-0.7,2.8c0.2,0.8,1.5,1.1,2.2,0.8c0.9-0.3,1-1.4,1.6-2.2c-0.1,1.6,3,1.9,2.5-0.4c-0.6-1-2-0.1-2.6-0.5
						c0.4-0.4,0.6-0.9,1.5-0.7C100.6,189.2,100.1,188.8,99.8,188.7z M90.4,189L90.4,189c-0.5-0.9-2.4-0.3-2.1,0.5
						c0.8-0.1,1.6,0.3,1.3,0.9c-0.6-0.3-1.9-0.4-2.3,0.1c-0.2,1.2,0.2,1.9,1.5,1.8c0.4-0.3,0.6-0.8,0.9-1.2c0.5,0.3,0.3,0.9,0.7,1.4
						c0.4,0.5,1.3,0.9,1.9,0.8c0.6-0.1,0.8-0.6,1.3-1.1C93.7,190,92.6,188.9,90.4,189z M103.7,189L103.7,189c1.7,0.6,1.2,3,1.1,4.7
						c1.9-1,1.5-5.4-1.2-5.3C103.5,188.7,103.8,188.7,103.7,189z M84.2,193.4L84.2,193.4c-0.1-0.9-0.4-1.8-0.4-2.6
						c0.1-1.4,1.2-1.7,1.4-2.7C82.6,188,82.2,192.6,84.2,193.4z M100.5,187.2L100.5,187.2c-0.1,0.4-0.3,0.7-0.5,1.1
						c1.2,0.4,1.4,1.8,2.2,2.6c-0.1,0.7,0.4,0.8,0.5,1.3c1.8,0.7,2.3-1.3,1.3-2.5c-0.6-0.6-2,0.2-2.5-0.3c0.4-0.4,0.9-0.5,1.6-0.6
						C102.9,187.6,102,187.1,100.5,187.2z M85.7,188.5L85.7,188.5c0.4,0.1,1.8-0.2,1.6,0.8c-1.8-0.4-3.2,0.1-2.9,2.1
						c0.4,0.6,1.6,0.6,2.1,0.1c0-1.4,1.1-1.8,1.4-2.9c0.2-0.3,0.8-0.3,0.9-0.7c-0.1-0.4-0.4-0.6-0.5-0.9
						C86.9,186.8,86,187.4,85.7,188.5z M96.1,189.3L96.1,189.3c0-0.2,0.3-0.1,0.4-0.2c-0.1-0.6-0.6-0.7-0.6-1.3
						c0-0.6,0.2-1.4-0.4-1.8C95,187,95,189,96.1,189.3z M93,187.9L93,187.9c0,0.4-0.5,0.4-0.6,0.8c1.3,1.3,1.8-2.4,0.8-3
						C93.1,186.5,92.8,187,93,187.9z M99.9,187.5L99.9,187.5c0.3-1.1-1.1-2.5-1.8-2.6c-1.2-0.2-2,0.4-1.8,1.9
						c0.9-0.1,1.6-0.2,1.8,0.7c-0.3,0.2-1.2-0.4-1.6,0.1C96.7,189.4,99.6,188.5,99.9,187.5z M89,186.9L89,186.9
						c0.1,1.4,3.1,2.4,3.5,0.6c-0.4-0.7-1.3,0-1.8-0.2c0.1-1,1.2-0.7,1.8-0.7c0.4-0.9-0.3-1.6-0.7-2C90.4,184.5,88.9,185.7,89,186.9
						z M101.8,195.2L101.8,195.2c0-0.6,0-1-0.1-1.4c-0.7-0.5-1.6-0.9-2.5-1.3c-0.5,1.3-2.3,2.1-3.6,1.2c-0.1,1.3,1.2,1.4,2.2,1.3
						c0.7-0.1,1.2-0.8,1.6-0.5c-0.6,1.4-2.7,1.2-4.1,0.7c-0.4,0.5-0.1,1.3,0.2,1.6C97.7,197.4,100.8,196.8,101.8,195.2z"/>
					<path class="st8" d="M101.5,193.1L101.5,193.1c0.4,0.3,0.6,0.7,0.8,1.2c1.3,0.1,2-0.5,2.1-1.6
						C103.1,193.3,101.9,191.5,101.5,193.1z M89.8,192.3L89.8,192.3c-1,0.4-1.9,0.8-2.6,1.4c-1.4,3.2,8,4.6,6.3,1.2
						c-0.7,0.1-1.2,0.6-2,0.6c-0.9,0-1.7-0.6-2.1-1.2c0.5-0.3,1,0.4,1.6,0.5c0.8,0.1,1.6-0.1,2.2-0.5v-0.8
						C92,194.2,90.1,193.6,89.8,192.3z M84.6,192.4L84.6,192.4c-0.2,1,0.7,1.7,2.1,1.5c0.2-0.5,0.6-0.8,0.8-1.3
						C86.9,191.6,85.7,192.9,84.6,192.4z M99.8,188.7L99.8,188.7c-0.4,0-0.5,0.1-0.7,0.2c-0.6,0.2-2.2,0.2-2.9,0.8
						c-0.7,0.6-0.8,2.3-0.7,2.8c0.2,0.8,1.5,1.1,2.2,0.8c0.9-0.3,1-1.4,1.6-2.2c-0.1,1.6,3,1.9,2.5-0.4c-0.6-1-2-0.1-2.6-0.5
						c0.4-0.4,0.6-0.9,1.5-0.7C100.6,189.2,100.1,188.8,99.8,188.7z M90.4,189L90.4,189c-0.5-0.9-2.4-0.3-2.1,0.5
						c0.8-0.1,1.6,0.3,1.3,0.9c-0.6-0.3-1.9-0.4-2.3,0.1c-0.2,1.2,0.2,1.9,1.5,1.8c0.4-0.3,0.6-0.8,0.9-1.2c0.5,0.3,0.3,0.9,0.7,1.4
						c0.4,0.5,1.3,0.9,1.9,0.8c0.6-0.1,0.8-0.6,1.3-1.1C93.7,190,92.6,188.9,90.4,189z M103.7,189L103.7,189c1.7,0.6,1.2,3,1.1,4.7
						c1.9-1,1.5-5.4-1.2-5.3C103.5,188.7,103.8,188.7,103.7,189z M84.2,193.4L84.2,193.4c-0.1-0.9-0.4-1.8-0.4-2.6
						c0.1-1.4,1.2-1.7,1.4-2.7C82.6,188,82.2,192.6,84.2,193.4z M100.5,187.2L100.5,187.2c-0.1,0.4-0.3,0.7-0.5,1.1
						c1.2,0.4,1.4,1.8,2.2,2.6c-0.1,0.7,0.4,0.8,0.5,1.3c1.8,0.7,2.3-1.3,1.3-2.5c-0.6-0.6-2,0.2-2.5-0.3c0.4-0.4,0.9-0.5,1.6-0.6
						C102.9,187.6,102,187.1,100.5,187.2z M85.7,188.5L85.7,188.5c0.4,0.1,1.8-0.2,1.6,0.8c-1.8-0.4-3.2,0.1-2.9,2.1
						c0.4,0.6,1.6,0.6,2.1,0.1c0-1.4,1.1-1.8,1.4-2.9c0.2-0.3,0.8-0.3,0.9-0.7c-0.1-0.4-0.4-0.6-0.5-0.9
						C86.9,186.8,86,187.4,85.7,188.5z M96.1,189.3L96.1,189.3c0-0.2,0.3-0.1,0.4-0.2c-0.1-0.6-0.6-0.7-0.6-1.3
						c0-0.6,0.2-1.4-0.4-1.8C95,187,95,189,96.1,189.3z M93,187.9L93,187.9c0,0.4-0.5,0.4-0.6,0.8c1.3,1.3,1.8-2.4,0.8-3
						C93.1,186.5,92.8,187,93,187.9z M99.9,187.5L99.9,187.5c0.3-1.1-1.1-2.5-1.8-2.6c-1.2-0.2-2,0.4-1.8,1.9
						c0.9-0.1,1.6-0.2,1.8,0.7c-0.3,0.2-1.2-0.4-1.6,0.1C96.7,189.4,99.6,188.5,99.9,187.5z M89,186.9L89,186.9
						c0.1,1.4,3.1,2.4,3.5,0.6c-0.4-0.7-1.3,0-1.8-0.2c0.1-1,1.2-0.7,1.8-0.7c0.4-0.9-0.3-1.6-0.7-2C90.4,184.5,88.9,185.7,89,186.9
						z M101.8,195.2L101.8,195.2c0-0.6,0-1-0.1-1.4c-0.7-0.5-1.6-0.9-2.5-1.3c-0.5,1.3-2.3,2.1-3.6,1.2c-0.1,1.3,1.2,1.4,2.2,1.3
						c0.7-0.1,1.2-0.8,1.6-0.5c-0.6,1.4-2.7,1.2-4.1,0.7c-0.4,0.5-0.1,1.3,0.2,1.6C97.7,197.4,100.8,196.8,101.8,195.2z"/>
					<path class="st9" d="M101.5,193.1L101.5,193.1c0.4,0.3,0.6,0.7,0.8,1.2c1.3,0.1,2-0.5,2.1-1.6
						C103.1,193.3,101.9,191.5,101.5,193.1 M89.8,192.3L89.8,192.3c-1,0.4-1.9,0.8-2.6,1.4c-1.4,3.2,8,4.6,6.3,1.2
						c-0.7,0.1-1.2,0.6-2,0.6c-0.9,0-1.7-0.6-2.1-1.2c0.5-0.3,1,0.4,1.6,0.5c0.8,0.1,1.6-0.1,2.2-0.5v-0.8
						C92,194.2,90.1,193.6,89.8,192.3 M84.6,192.4L84.6,192.4c-0.2,1,0.7,1.7,2.1,1.5c0.2-0.5,0.6-0.8,0.8-1.3
						C86.9,191.6,85.7,192.9,84.6,192.4 M99.8,188.7L99.8,188.7c-0.4,0-0.5,0.1-0.7,0.2c-0.6,0.2-2.2,0.2-2.9,0.8
						c-0.7,0.6-0.8,2.3-0.7,2.8c0.2,0.8,1.5,1.1,2.2,0.8c0.9-0.3,1-1.4,1.6-2.2c-0.1,1.6,3,1.9,2.5-0.4c-0.6-1-2-0.1-2.6-0.5
						c0.4-0.4,0.6-0.9,1.5-0.7C100.6,189.2,100.1,188.8,99.8,188.7 M90.4,189L90.4,189c-0.5-0.9-2.4-0.3-2.1,0.5
						c0.8-0.1,1.6,0.3,1.3,0.9c-0.6-0.3-1.9-0.4-2.3,0.1c-0.2,1.2,0.2,1.9,1.5,1.8c0.4-0.3,0.6-0.8,0.9-1.2c0.5,0.3,0.3,0.9,0.7,1.4
						c0.4,0.5,1.3,0.9,1.9,0.8c0.6-0.1,0.8-0.6,1.3-1.1C93.7,190,92.6,188.9,90.4,189 M103.7,189L103.7,189c1.7,0.6,1.2,3,1.1,4.7
						c1.9-1,1.5-5.4-1.2-5.3C103.5,188.7,103.8,188.7,103.7,189 M84.2,193.4L84.2,193.4c-0.1-0.9-0.4-1.8-0.4-2.6
						c0.1-1.4,1.2-1.7,1.4-2.7C82.6,188,82.2,192.6,84.2,193.4 M100.5,187.2L100.5,187.2c-0.1,0.4-0.3,0.7-0.5,1.1
						c1.2,0.4,1.4,1.8,2.2,2.6c-0.1,0.7,0.4,0.8,0.5,1.3c1.8,0.7,2.3-1.3,1.3-2.5c-0.6-0.6-2,0.2-2.5-0.3c0.4-0.4,0.9-0.5,1.6-0.6
						C102.9,187.6,102,187.1,100.5,187.2 M85.7,188.5L85.7,188.5c0.4,0.1,1.8-0.2,1.6,0.8c-1.8-0.4-3.2,0.1-2.9,2.1
						c0.4,0.6,1.6,0.6,2.1,0.1c0-1.4,1.1-1.8,1.4-2.9c0.2-0.3,0.8-0.3,0.9-0.7c-0.1-0.4-0.4-0.6-0.5-0.9
						C86.9,186.8,86,187.4,85.7,188.5 M96.1,189.3L96.1,189.3c0-0.2,0.3-0.1,0.4-0.2c-0.1-0.6-0.6-0.7-0.6-1.3
						c0-0.6,0.2-1.4-0.4-1.8C95,187,95,189,96.1,189.3 M93,187.9L93,187.9c0,0.4-0.5,0.4-0.6,0.8c1.3,1.3,1.8-2.4,0.8-3
						C93.1,186.5,92.8,187,93,187.9 M99.9,187.5L99.9,187.5c0.3-1.1-1.1-2.5-1.8-2.6c-1.2-0.2-2,0.4-1.8,1.9
						c0.9-0.1,1.6-0.2,1.8,0.7c-0.3,0.2-1.2-0.4-1.6,0.1C96.7,189.4,99.6,188.5,99.9,187.5 M89,186.9L89,186.9
						c0.1,1.4,3.1,2.4,3.5,0.6c-0.4-0.7-1.3,0-1.8-0.2c0.1-1,1.2-0.7,1.8-0.7c0.4-0.9-0.3-1.6-0.7-2C90.4,184.5,88.9,185.7,89,186.9
						 M101.8,195.2L101.8,195.2c0-0.6,0-1-0.1-1.4c-0.7-0.5-1.6-0.9-2.5-1.3c-0.5,1.3-2.3,2.1-3.6,1.2c-0.1,1.3,1.2,1.4,2.2,1.3
						c0.7-0.1,1.2-0.8,1.6-0.5c-0.6,1.4-2.7,1.2-4.1,0.7c-0.4,0.5-0.1,1.3,0.2,1.6C97.7,197.4,100.8,196.8,101.8,195.2"/>
				</g>
			</g>
		</g>
		<g>
			<circle class="st10" cx="445.6" cy="206.5" r="28.6"/>
			<linearGradient id="SVGID_5_" gradientUnits="userSpaceOnUse" x1="451.8861" y1="179.823" x2="451.8861" y2="225.905">
				<stop  offset="0" style="stop-color:#E56A2F"/>
				<stop  offset="1" style="stop-color:#FB894B"/>
			</linearGradient>
			<path class="st11" d="M474.2,206.5c0-12.1-7.6-22.5-18.2-26.6c3.8,2.1,7.4,4.2,8.7,5.8c3.7,4.8,5.4,11.4,5,19.9
				c-0.2,4.1-1.1,7.5-2.8,10.2c-1.7,2.7-3.9,4-6.8,4c-0.7,0-1.3-0.4-1.7-1.2c-0.4-0.8-0.6-1.7-0.4-3.9l1.9-20.7h-0.2l0.1-0.8
				c-2.2-1.4-4.2-2.7-6.1-3.3c-1.8-0.7-4.3-1.1-7.3-1.1c-4.3,0-8,1.8-11,5.6c-3,3.8-4.9,8.8-5.5,15.1c-0.5,4.9,0.2,8.8,2.2,11.8
				c2,3,4.8,4.5,8.6,4.5c2.1,0,3.9-0.5,5.5-1.6c1.6-1.1,2.9-2.7,3.9-4.8c0.6,2.1,1.6,3.7,3.1,4.8c1.5,1.1,3.2,1.7,5.3,1.7
				c4.2,0,7.7-1,10.5-2.9C472.2,218.4,474.2,212.6,474.2,206.5z M449.5,213.3c-0.8,2-1.7,3.4-2.8,4.2c-1.1,0.8-2.3,1.1-3.6,1.1
				c-1.5,0-2.6-0.8-3.3-2.3c-0.7-1.5-0.9-3.8-0.7-6.8c0.4-4.5,1.3-7.9,2.7-10.2c1.4-2.3,3.4-3.4,6-3.4c0.5,0,1.1,0,1.6,0.1
				c0.5,0.1,1.1,0.2,1.6,0.3L449.5,213.3z"/>
			<g>
				<g>
					<linearGradient id="SVGID_6_" gradientUnits="userSpaceOnUse" x1="445.5679" y1="184.7151" x2="445.5679" y2="227.2432">
						<stop  offset="0.5571" style="stop-color:#FFFFFF"/>
						<stop  offset="1" style="stop-color:#FBD6B0"/>
					</linearGradient>
					<path class="st12" d="M451.5,225.7l-4.2-4.2c1.6-0.7,2.7-2.2,2.7-4.1c0-1.4-0.7-2.7-1.8-3.5v-12.4c1.1-0.8,1.8-2.1,1.8-3.5
						c0-1.6-0.9-3-2.2-3.8c-1.3-3-1.4-4.5-1.4-8v-0.7c0-0.5-0.4-0.9-0.9-0.9c-0.5,0-0.9,0.4-0.9,0.9v0.7c0,3.4-0.1,4.9-1.4,8
						c-1.3,0.8-2.2,2.2-2.2,3.8c0,1.4,0.7,2.7,1.8,3.5V214c-1.1,0.8-1.8,2.1-1.8,3.5c0,1.8,1.1,3.4,2.7,4.1l-4.2,4.2
						c-0.3,0.3-0.3,0.9,0,1.3s0.9,0.3,1.3,0l3.8-3.8v3.2c0,0.5,0.4,0.9,0.9,0.9s0.9-0.4,0.9-0.9v-3.2l3.8,3.8
						c0.2,0.2,0.4,0.3,0.6,0.3c0.2,0,0.5-0.1,0.6-0.3C451.9,226.6,451.9,226.1,451.5,225.7z M444.4,195.6
						C444.4,195.6,444.4,195.6,444.4,195.6c0.8-0.4,1.6-0.4,2.3,0c0,0,0,0,0,0c0.9,0.4,1.5,1.3,1.5,2.4c0,1-0.5,1.8-1.3,2.3
						c0,0,0,0,0,0c-0.2,0.1-0.4,0.2-0.6,0.3c0,0,0,0,0,0c-0.4,0.1-0.9,0.1-1.3,0c0,0,0,0,0,0c-0.2-0.1-0.4-0.2-0.6-0.3c0,0,0,0,0,0
						c-0.8-0.5-1.3-1.3-1.3-2.3C442.9,197,443.5,196.1,444.4,195.6z M444.7,209.5V206h1.8v3.5H444.7z M446.5,211.3v1.9
						c-0.3-0.1-0.6-0.1-0.9-0.1c-0.3,0-0.6,0-0.9,0.1v-1.9H446.5z M444.7,204.2v-1.9c0.3,0.1,0.6,0.1,0.9,0.1c0.3,0,0.6,0,0.9-0.1
						v1.9H444.7L444.7,204.2z M445.6,220.2c-1.5,0-2.7-1.2-2.7-2.7c0-1,0.5-1.8,1.3-2.3c0,0,0,0,0,0c0.2-0.1,0.4-0.2,0.6-0.3
						c0,0,0,0,0,0c0.4-0.1,0.9-0.1,1.3,0c0,0,0,0,0,0c0.2,0.1,0.4,0.1,0.6,0.3c0,0,0,0,0,0c0.8,0.5,1.3,1.3,1.3,2.3
						C448.2,219,447,220.2,445.6,220.2z"/>
				</g>
			</g>
		</g>
	</g>
</g>
<g>
</g>
<g>
</g>
<g>
</g>
<g>
</g>
<g>
</g>
<g>
</g>
<g>
</g>
<g>
</g>
<g>
</g>
<g>
</g>
<g>
</g>
<g>
</g>
<g>
</g>
<g>
</g>
<g>
</g>
</svg>
